<svg width="32" height="32" viewBox="0 0 32 32" fill="none" xmlns="http://www.w3.org/2000/svg">
    <path
        d="M10.9577 9.53413H10.4342C9.44053 9.53413 8.90443 10.1221 8.90443 11.2817V16.8692C8.90443 18.3064 8.43116 18.813 7.32755 18.813C6.91336 18.8147 6.50465 18.7149 6.13473 18.5219C5.76481 18.3289 5.44414 18.048 5.19886 17.7022C4.83059 17.8402 4.51522 18.0978 4.29975 18.4365C4.08427 18.7753 3.98022 19.1771 4.00311 19.5821C4.00311 21.0856 5.3643 22 7.86679 22C10.9263 22 12.5346 20.4152 12.5346 16.9191V11.2697C12.5346 10.1069 11.9818 9.53413 10.9577 9.53413ZM15.6884 12.3599H15.3261C14.4434 12.3599 13.7649 12.7851 13.7649 14.1074V20.1028C13.7649 21.4262 14.411 21.8503 15.3575 21.8503H15.7198C16.6025 21.8503 17.2339 21.3925 17.2339 20.1028V14.1085C17.2496 12.7526 16.6339 12.3599 15.6884 12.3599ZM15.479 8.0144C15.2489 7.98296 15.0151 8.00314 14.7933 8.07358C14.5714 8.14402 14.3668 8.26307 14.1933 8.42265C14.0198 8.58223 13.8815 8.77861 13.7877 8.99846C13.6939 9.21831 13.6469 9.45649 13.6497 9.69684C13.6497 10.7425 14.3754 11.3955 15.5261 11.3955C15.7574 11.4267 15.9924 11.4057 16.2151 11.3341C16.4378 11.2625 16.643 11.142 16.8167 10.9807C16.9903 10.8194 17.1283 10.6213 17.2213 10.3997C17.3143 10.1781 17.36 9.93839 17.3553 9.69684C17.3752 8.65223 16.6496 8.01549 15.4832 8.01549L15.479 8.0144ZM23.1226 12.2623C20.1583 12.2623 18.1867 14.2061 18.1867 17.1143C18.1867 20.0876 20.0787 21.9957 23.0755 21.9957C26.0397 21.9957 27.9967 20.0843 27.9967 17.1273C28.0211 16.4666 27.9106 15.8079 27.6724 15.1945C27.4342 14.581 27.0737 14.0266 26.6143 13.5674C26.155 13.1083 25.6073 12.7548 25.0071 12.5301C24.4068 12.3053 23.7675 12.2144 23.1309 12.2633L23.1226 12.2623ZM23.0912 19.2545C22.6797 19.2747 22.2719 19.1666 21.9203 18.9443C21.5686 18.722 21.2894 18.3956 21.1186 18.0073C20.9478 17.6189 20.8933 17.1865 20.9621 16.7658C21.0308 16.345 21.2197 15.9553 21.5044 15.6468C21.7891 15.3384 22.1564 15.1254 22.5591 15.0354C22.9617 14.9454 23.3812 14.9824 23.7633 15.1418C24.1454 15.3011 24.4727 15.5755 24.7028 15.9294C24.9329 16.2833 25.0554 16.7006 25.0544 17.1273C25.0672 17.4016 25.0261 17.6757 24.9336 17.933C24.8411 18.1903 24.6992 18.4255 24.5165 18.6244C24.3337 18.8233 24.1139 18.9817 23.8704 19.09C23.6268 19.1983 23.3646 19.2542 23.0995 19.2545H23.0912Z"
        fill="white" />
    <g clip-path="url(#clip0_46_253)">
        <path
            d="M18.7314 0.0261736C18.67 0.0432425 18.5253 0.0603113 18.4112 0.0645781C17.9551 0.0731125 16.4814 0.435826 15.9463 0.666257C15.898 0.687593 15.7621 0.743067 15.6393 0.790006C15.3191 0.909489 14.4726 1.30207 14.341 1.39595C14.2796 1.43436 14.1787 1.48556 14.1129 1.49837C14.0472 1.51543 13.9945 1.5453 13.9945 1.56237C13.9945 1.57944 13.9594 1.60505 13.92 1.62211C13.8761 1.63492 13.784 1.68612 13.7094 1.73306C13.6393 1.78 13.534 1.83548 13.477 1.86108C13.42 1.88241 13.3103 1.95069 13.2314 2.01043C13.1524 2.07017 13.0735 2.11711 13.0603 2.11711C12.9594 2.11711 11.5471 3.11564 11.148 3.46555C10.8235 3.75146 10.2226 4.37447 10.2226 4.42568C10.2226 4.43848 10.1831 4.49822 10.1305 4.5537C9.99889 4.69878 9.60415 5.30473 9.49012 5.53089C9.44187 5.63757 9.34538 5.82533 9.28398 5.95335C9.06906 6.38007 8.98134 6.84519 9.00327 7.38713C9.02959 7.92053 9.1524 8.1979 9.5252 8.56489C9.91556 8.94467 10.3322 9.11109 10.9901 9.14523C11.4419 9.16656 11.7664 9.13243 12.2182 9.00868C12.3629 8.97027 12.5559 8.92333 12.648 8.89773C12.7401 8.87639 12.8454 8.84225 12.8893 8.81665C12.9901 8.76544 13.5559 8.51795 13.5822 8.51795C13.6612 8.51795 14.5866 7.96747 15.4419 7.41273C16.0077 7.04575 16.5033 6.72571 16.5472 6.70438C16.5866 6.67877 16.8542 6.52515 17.1393 6.35873C17.4244 6.19658 17.7752 6.00028 17.92 5.92774C18.0647 5.8552 18.2709 5.74852 18.3805 5.69304C18.4902 5.64184 18.6963 5.54796 18.841 5.49675C18.9858 5.44128 19.1656 5.36874 19.2358 5.33887C19.3103 5.30899 19.4156 5.26206 19.477 5.23645C19.6481 5.16818 20.034 5.0999 20.4112 5.0743C21.227 5.02309 21.7972 5.373 22.0911 6.10697C22.1612 6.28192 22.1744 6.42701 22.1744 6.93907C22.1744 7.56209 22.1174 7.90347 21.9463 8.30458C21.9112 8.38566 21.863 8.50088 21.8367 8.56062C21.6174 9.07268 21.1656 9.80665 20.6481 10.4723C20.1568 11.1124 19.0998 12.175 18.4024 12.734C18.1612 12.9303 17.8937 13.1436 17.8103 13.2119C17.6261 13.3612 17.4112 13.5106 17.1744 13.6642C17.0779 13.724 16.92 13.8264 16.8235 13.8946C16.5516 14.0739 15.8279 14.4494 15.42 14.6201C15.3016 14.6713 15.1393 14.7396 15.0603 14.7737C14.9858 14.8078 14.8849 14.8334 14.8366 14.8334C14.7928 14.8334 14.6919 14.8548 14.613 14.8804C14.3279 14.9785 14.0384 14.7908 14.0384 14.5049C14.0384 14.1549 14.2094 13.9331 15.2884 12.8918C16.4551 11.7653 16.5823 11.5989 16.5823 11.1722C16.5823 10.7326 16.3673 10.4339 15.8849 10.195C15.6744 10.0883 15.5954 10.0755 15.227 10.0755C14.7972 10.0755 14.5472 10.1352 14.2358 10.3187C14.1656 10.3614 14.0559 10.4169 13.9945 10.4467C13.9331 10.4766 13.8761 10.5107 13.8629 10.5235C13.8498 10.5363 13.7621 10.6003 13.6656 10.6729C13.4331 10.8436 13.0252 11.249 12.7928 11.5434C12.6305 11.7482 12.5121 11.9403 12.2357 12.4438C12.0077 12.862 11.8015 13.6386 11.8015 14.0909C11.8015 15.0084 12.2928 15.7424 13.0515 15.9514C13.2796 16.0155 14.2094 16.0155 14.5296 15.9557C14.8454 15.8917 15.67 15.6442 15.7226 15.5973C15.7489 15.5759 15.7928 15.5589 15.8279 15.5589C15.9419 15.5589 17.2445 14.9145 17.6919 14.6329C17.7928 14.5689 17.9068 14.4963 17.9507 14.4707C17.9902 14.4494 18.1963 14.3256 18.4112 14.1976C18.6217 14.0696 18.806 13.9501 18.8191 13.9373C18.8323 13.9202 18.9814 13.8136 19.1481 13.7026C19.3191 13.5874 19.5165 13.4551 19.5867 13.4082C19.6612 13.357 19.8674 13.2034 20.0472 13.0625C21.1875 12.1792 22.1963 11.2362 22.784 10.5022C22.8805 10.387 22.9683 10.2803 22.9814 10.2675C23.0165 10.2419 23.3148 9.82372 23.5209 9.50794C23.613 9.37566 23.7534 9.14096 23.8323 8.98734C23.9156 8.83372 24.0297 8.62463 24.0867 8.51795C24.1437 8.41126 24.2665 8.1339 24.363 7.8992C24.4551 7.6645 24.5472 7.43407 24.5648 7.38713C24.6876 7.08416 24.8762 6.30326 24.9595 5.74425C25.0516 5.1127 24.9814 4.07577 24.8016 3.50396C24.727 3.26926 24.7095 3.22659 24.5472 2.88521C24.1963 2.15125 23.6349 1.48556 22.9902 1.05031C22.9025 0.990565 22.7928 0.909489 22.7446 0.862549C22.5867 0.725998 21.784 0.376085 21.3147 0.243802C21.0647 0.171259 20.6919 0.094449 20.4858 0.0645781C20.0121 0.00483704 18.8761 -0.025034 18.7314 0.0261736Z"
            fill="#FF0000" />
        <path
            d="M30.6504 21.0148C30.6381 21.0235 30.4502 21.0622 30.2256 21.101C30.0009 21.1354 29.6332 21.2 29.4085 21.2431L29 21.3162V25.2775C29 29.5789 28.9919 29.3981 29.2329 29.9363C29.3146 30.1215 29.429 30.2808 29.6046 30.4487C30.0376 30.8663 30.4421 30.9955 31.304 30.9998C32.0393 30.9998 32.0107 31.03 31.9944 30.3152L31.9821 29.7985L31.6676 29.7684C31.1079 29.7167 30.8383 29.4799 30.777 28.989C30.7607 28.8427 30.7484 26.9998 30.7525 24.8986C30.7566 21.2603 30.7484 20.9115 30.6504 21.0148Z"
            fill="#FF0000" />
        <path
            d="M18.2436 21.0649C17.3576 21.2078 17.0622 21.2684 17.0263 21.316C16.9984 21.3506 16.9944 22.7316 17.0064 25.3723C17.0263 29.0606 17.0343 29.3939 17.0982 29.5714C17.2498 29.9913 17.3296 30.1385 17.5332 30.3593C17.9522 30.8139 18.487 31 19.3651 31C19.852 31 19.9198 30.9913 19.9517 30.9221C19.9916 30.8398 20.0116 30.0866 19.9797 29.9134C19.9557 29.8052 19.9398 29.8009 19.6404 29.7749C19.2613 29.7489 19.0378 29.6104 18.8821 29.3117L18.7824 29.1169L18.7704 26.8745C18.7624 25.2035 18.7704 24.6147 18.8063 24.5671C18.8422 24.5195 18.9779 24.5065 19.405 24.5065C20.0635 24.5065 20.0076 24.5758 19.9916 23.7489L19.9797 23.1861L19.4209 23.1645C19.1136 23.1515 18.8382 23.1255 18.8143 23.1082C18.7744 23.0823 18.7624 22.8182 18.7624 22.0346V21L18.6746 21.0043C18.6227 21.0087 18.4312 21.0346 18.2436 21.0649Z"
            fill="#FF0000" />
        <path
            d="M3.86166 23.0123C3.54524 23.0423 2.78581 23.2267 2.55376 23.3296C2.50735 23.351 2.42297 23.381 2.3639 23.3982C2.17827 23.4497 1.56229 23.7627 1.56229 23.8056C1.56229 23.827 1.60026 23.9256 1.64245 24.0285C1.92091 24.6503 2.02638 24.8733 2.04748 24.8733C2.06013 24.8733 2.10232 24.8561 2.14451 24.8347C2.35969 24.7232 2.62127 24.616 2.828 24.5517C2.95457 24.5131 3.10646 24.4616 3.16552 24.4402C3.40179 24.3544 4.03043 24.3116 4.32154 24.3587C4.89533 24.4531 5.10628 24.7232 5.14003 25.4136C5.15691 25.7952 5.15691 25.8038 5.05987 25.8295C5.00502 25.8467 4.61687 25.8596 4.19919 25.8596C3.19506 25.8596 2.88707 25.9196 2.23733 26.2412C1.68042 26.5156 1.26695 27.0345 1.06866 27.7034C0.967402 28.0593 0.980059 28.724 1.09397 29.0756C1.47369 30.242 2.37656 30.9238 3.63384 30.9924C4.7772 31.0567 5.95431 30.7094 6.70952 30.0919L6.98376 29.8646L6.99641 27.5962C7.00907 24.9676 7.00485 24.8776 6.69264 24.2344C6.55341 23.9428 6.0851 23.4797 5.79399 23.351C5.65898 23.2867 5.51131 23.2224 5.4649 23.2009C5.14847 23.0594 4.34685 22.9651 3.86166 23.0123ZM5.10628 27.146C5.1316 27.1803 5.14847 27.6906 5.14847 28.3081C5.14847 29.5259 5.16535 29.4487 4.85314 29.6159C4.73501 29.6802 4.60422 29.6931 4.19497 29.6974H3.68446L3.47351 29.5516C3.3596 29.4744 3.22459 29.3458 3.17818 29.2729C2.86597 28.8098 2.88707 27.9822 3.21615 27.5748C3.31319 27.4504 3.68446 27.1889 3.75197 27.1889C3.79416 27.1889 3.84057 27.1717 3.86588 27.1503C3.92495 27.0859 4.11903 27.0688 4.61265 27.0774C4.96705 27.0817 5.07675 27.0945 5.10628 27.146Z"
            fill="#FF0000" />
        <path
            d="M14.6434 23.0833C13.7041 23.289 12.9535 23.661 12.1983 24.3001L12 24.4664V27.6615C12 29.4166 12 30.8873 12 30.931C12 31.0011 12.0708 31.0054 13.0291 30.9967L14.0534 30.9836L14.0675 27.9329L14.077 24.8866L14.2564 24.7552C14.4688 24.5977 14.5726 24.5495 14.8464 24.462C15.1721 24.3613 15.6819 24.3132 16.0643 24.3526C16.2531 24.3701 16.4325 24.3788 16.4608 24.3657C16.4938 24.357 16.5788 24.2081 16.6543 24.0331C16.7251 23.858 16.8384 23.6304 16.8951 23.5253C17.0508 23.2496 17.0367 23.1796 16.829 23.1358C16.7299 23.1139 16.5505 23.0745 16.423 23.0483C16.0879 22.9695 15.0636 22.9914 14.6434 23.0833Z"
            fill="#FF0000" />
        <path
            d="M23.437 23.0472C23.2987 23.0687 23.1687 23.1074 23.1478 23.1289C23.1226 23.1504 23.0807 23.1677 23.0472 23.1677C23.0136 23.1677 22.8627 23.2279 22.716 23.3054C22.3932 23.4689 21.8986 23.938 21.689 24.2866C21.5046 24.5921 21.2908 25.0483 21.2573 25.2118C21.2405 25.2807 21.2154 25.3796 21.1944 25.427C21.1776 25.4743 21.1273 25.6594 21.0854 25.8358C20.9722 26.3006 20.9722 27.7896 21.0812 28.2243C21.1818 28.6245 21.4082 29.2356 21.4501 29.2356C21.4711 29.2356 21.4878 29.2571 21.4878 29.2829C21.4878 29.4464 21.9866 30.0963 22.3388 30.3889C22.4938 30.518 22.8418 30.7031 23.1017 30.7934C23.3825 30.8924 24.0029 31 24.2795 31C24.8748 31 25.9479 30.7375 26.3042 30.5051C26.388 30.4535 26.5012 30.3932 26.5599 30.376C26.6856 30.3373 26.9623 30.1608 26.9958 30.1006C27.0335 30.0403 26.5641 29.0634 26.5012 29.0634C26.4718 29.0634 26.3964 29.1022 26.3377 29.1495C26.279 29.1968 26.2078 29.2356 26.1742 29.2356C26.1449 29.2356 26.082 29.2614 26.0359 29.2958C25.9898 29.3259 25.7718 29.4163 25.5538 29.4938C25.1808 29.6272 25.1179 29.6358 24.5688 29.6401C24.049 29.6401 23.961 29.6315 23.7933 29.5497C23.2064 29.2614 22.8711 28.5341 22.8711 27.5529C22.8711 27.342 22.8753 27.1656 22.8837 27.1613C22.8879 27.1527 23.8184 27.1398 24.946 27.1269L27 27.1053L26.9874 26.675C26.9623 25.8315 26.7443 24.6954 26.5557 24.4372C26.5389 24.4114 26.4802 24.3038 26.4257 24.1962C26.1994 23.7357 25.7215 23.3398 25.1556 23.1461C24.7406 22.9998 23.9819 22.9568 23.437 23.0472ZM24.3382 24.4157C24.5143 24.463 24.8832 24.7686 24.8832 24.8632C24.8832 24.8891 24.9125 24.9665 24.946 25.0311C25.0424 25.2247 25.1179 25.8616 25.0508 25.9434C25.0089 25.9993 24.8454 26.008 23.9987 26.008H22.9969L22.9717 25.9004C22.9172 25.6809 23.0639 25.0913 23.2316 24.8632C23.416 24.6093 23.5795 24.4802 23.8226 24.4071C23.9568 24.3683 24.0867 24.3425 24.1161 24.3511C24.1412 24.3597 24.2418 24.3898 24.3382 24.4157Z"
            fill="#FF0000" />
        <path
            d="M8.6053 20.0633C8.32649 20.2028 8.24212 20.2707 8.12106 20.446C8.00367 20.6212 8 20.6355 8 21.0003V21.3794L8.1394 21.5653C8.30448 21.7835 8.41454 21.8622 8.65665 21.9444C8.98315 22.0481 9.26562 22.0088 9.59211 21.8085C9.98464 21.5653 10.1204 20.9431 9.88192 20.4853C9.79755 20.3244 9.72418 20.2493 9.50407 20.1134C9.30597 19.9882 8.80339 19.9596 8.6053 20.0633Z"
            fill="#FF0000" />
        <path
            d="M9.65777 23.032C9.58314 23.0543 9.37325 23.0943 9.19135 23.1166C9.01411 23.1388 8.68762 23.1834 8.4684 23.2145C8.24918 23.2412 8.05795 23.2813 8.03463 23.2946C7.99265 23.3303 7.98799 30.8932 8.0253 30.9599C8.04396 30.9822 8.45907 31 9.00478 31C9.95627 31 9.96094 31 9.98426 30.8976C9.99825 30.8442 10.0029 29.0458 9.99825 26.9047C9.98426 23.0454 9.98426 23.0098 9.89097 23.0009C9.83967 22.9964 9.73706 23.0098 9.65777 23.032Z"
            fill="#FF0000" />
    </g>
    <defs>
        <clipPath id="clip0_46_253">
            <rect width="31" height="31" fill="white" transform="translate(1)" />
        </clipPath>
    </defs>
</svg>