<svg width="26" height="26" viewBox="0 0 26 26" fill="none" xmlns="http://www.w3.org/2000/svg">
    <path
        d="M21 1C22.0609 1 23.0783 1.42143 23.8284 2.17157C24.5786 2.92172 25 3.93913 25 5V7.85733C25 8.30267 25 8.52533 24.8973 8.688C24.8441 8.77258 24.7726 8.84413 24.688 8.89733C24.5253 9 24.3027 9 23.8573 9H17M21 1C19.9391 1 18.9217 1.42143 18.1716 2.17157C17.4214 2.92172 17 3.93913 17 5V9M21 1H6.33333C3.81867 1 2.56267 1 1.78133 1.78133C1 2.56267 1 3.81867 1 6.33333V25L5 23.6667L9 25L13 23.6667L17 25V9"
        stroke="#111111" />
    <path d="M6 6H11M7.25 11.5H6M6 17H9.75" stroke="#111111" stroke-linecap="round" />
</svg>