<svg width="31" height="22" viewBox="0 0 31 22" fill="none" xmlns="http://www.w3.org/2000/svg">
    <path
        d="M5.76213 0.687619C5.72564 0.564291 5.66429 0.449488 5.58174 0.350081C5.4992 0.250674 5.39716 0.168706 5.28173 0.109084C5.1663 0.0494618 5.03986 0.0134105 4.90997 0.00308805C4.78007 -0.00723437 4.6494 0.00838392 4.52578 0.0490087C4.40215 0.0896334 4.28811 0.154429 4.19048 0.239518C4.09285 0.324607 4.01364 0.42824 3.95758 0.544213C3.90153 0.660187 3.86978 0.786118 3.86425 0.914469C3.85871 1.04282 3.8795 1.17095 3.92537 1.2912L7.37413 11.4947H2.90625C2.13546 11.4947 1.39625 11.7966 0.851221 12.3339C0.306193 12.8712 0 13.5999 0 14.3598L0 18.1799C0 18.9398 0.306193 19.6685 0.851221 20.2058C1.39625 20.7431 2.13546 21.045 2.90625 21.045H3.875C3.875 21.2983 3.97706 21.5412 4.15874 21.7203C4.34042 21.8994 4.58682 22 4.84375 22H8.71875C8.97568 22 9.22208 21.8994 9.40376 21.7203C9.58543 21.5412 9.6875 21.2983 9.6875 21.045H21.3125C21.3125 21.2983 21.4146 21.5412 21.5962 21.7203C21.7779 21.8994 22.0243 22 22.2812 22H26.1562C26.4132 22 26.6596 21.8994 26.8413 21.7203C27.0229 21.5412 27.125 21.2983 27.125 21.045H28.0938C28.8645 21.045 29.6038 20.7431 30.1488 20.2058C30.6938 19.6685 31 18.9398 31 18.1799V14.3598C31 13.5999 30.6938 12.8712 30.1488 12.3339C29.6038 11.7966 28.8645 11.4947 28.0938 11.4947H23.6259L27.0746 1.2912C27.1205 1.17095 27.1413 1.04282 27.1357 0.914469C27.1302 0.786118 27.0985 0.660187 27.0424 0.544213C26.9864 0.42824 26.9071 0.324607 26.8095 0.239518C26.7119 0.154429 26.5978 0.0896334 26.4742 0.0490087C26.3506 0.00838392 26.2199 -0.00723437 26.09 0.00308805C25.9601 0.0134105 25.8337 0.0494618 25.7183 0.109084C25.6028 0.168706 25.5008 0.250674 25.4183 0.350081C25.3357 0.449488 25.2744 0.564291 25.2379 0.687619L21.5837 11.4947H9.41625L5.76213 0.687619ZM28.0938 13.4048C28.3507 13.4048 28.5971 13.5054 28.7788 13.6845C28.9604 13.8636 29.0625 14.1065 29.0625 14.3598V18.1799C29.0625 18.4332 28.9604 18.6761 28.7788 18.8552C28.5971 19.0343 28.3507 19.1349 28.0938 19.1349H2.90625C2.64932 19.1349 2.40292 19.0343 2.22124 18.8552C2.03956 18.6761 1.9375 18.4332 1.9375 18.1799V14.3598C1.9375 14.1065 2.03956 13.8636 2.22124 13.6845C2.40292 13.5054 2.64932 13.4048 2.90625 13.4048H28.0938Z"
        fill="#0466C8" />
</svg>