<svg width="18" height="18" viewBox="0 0 18 18" fill="none" xmlns="http://www.w3.org/2000/svg">
    <path
        d="M9 1V0H18V1H9ZM9 4.385V3.385H18V4.385H9ZM9 7.769V6.769H18V7.769H9ZM14.93 18C13.2447 18 11.5167 17.578 9.746 16.734C7.97533 15.89 6.33033 14.705 4.811 13.179C3.29167 11.653 2.11 10.008 1.266 8.244C0.422 6.48 0 4.75533 0 3.07C0 2.76467 0.0999999 2.51033 0.3 2.307C0.5 2.10367 0.75 2.00133 1.05 2H3.523C3.795 2 4.03233 2.08567 4.235 2.257C4.437 2.42833 4.574 2.648 4.646 2.916L5.142 5.3C5.18867 5.58 5.18033 5.82433 5.117 6.033C5.05367 6.24167 4.94267 6.41267 4.784 6.546L2.591 8.592C3.001 9.33667 3.45433 10.0287 3.951 10.668C4.44767 11.3073 4.97767 11.913 5.541 12.485C6.121 13.065 6.746 13.605 7.416 14.105C8.08467 14.6043 8.819 15.0757 9.619 15.519L11.758 13.342C11.9207 13.1667 12.1037 13.051 12.307 12.995C12.5103 12.939 12.735 12.928 12.981 12.962L15.085 13.392C15.3563 13.4587 15.5767 13.5957 15.746 13.803C15.9153 14.0103 16 14.2477 16 14.515V16.95C16 17.25 15.898 17.5 15.694 17.7C15.49 17.9 15.2347 18 14.93 18ZM2.12 7.654L4.04 5.889C4.10333 5.83767 4.14467 5.767 4.164 5.677C4.184 5.587 4.18067 5.50367 4.154 5.427L3.71 3.307C3.68467 3.205 3.64 3.12833 3.576 3.077C3.512 3.02567 3.429 3 3.327 3H1.275C1.19833 3 1.13433 3.02567 1.083 3.077C1.03167 3.12833 1.006 3.19233 1.006 3.269C1.02533 3.95233 1.13233 4.66567 1.327 5.409C1.52167 6.15233 1.78533 6.90067 2.12 7.654ZM10.571 15.988C11.247 16.3227 11.967 16.5703 12.731 16.731C13.4963 16.891 14.163 16.9767 14.731 16.988C14.8077 16.988 14.8717 16.9623 14.923 16.911C14.9743 16.8597 15 16.796 15 16.72V14.712C15 14.61 14.9743 14.5267 14.923 14.462C14.8717 14.398 14.795 14.3533 14.693 14.328L12.843 13.949C12.7657 13.923 12.6983 13.9197 12.641 13.939C12.583 13.959 12.522 14.0007 12.458 14.064L10.571 15.988Z"
        fill="#111111" />
</svg>