<svg width="26" height="20" viewBox="0 0 26 20" fill="none" xmlns="http://www.w3.org/2000/svg">
    <path
        d="M2.88889 0C1.29549 0 0 1.28125 0 2.85714V4.28571H26V2.85714C26 1.28125 24.7045 0 23.1111 0H2.88889ZM26 8.57143H0V17.1429C0 18.7188 1.29549 20 2.88889 20H23.1111C24.7045 20 26 18.7188 26 17.1429V8.57143ZM5.05556 14.2857H7.94444C8.34167 14.2857 8.66667 14.6071 8.66667 15C8.66667 15.3929 8.34167 15.7143 7.94444 15.7143H5.05556C4.65833 15.7143 4.33333 15.3929 4.33333 15C4.33333 14.6071 4.65833 14.2857 5.05556 14.2857ZM10.1111 15C10.1111 14.6071 10.4361 14.2857 10.8333 14.2857H16.6111C17.0083 14.2857 17.3333 14.6071 17.3333 15C17.3333 15.3929 17.0083 15.7143 16.6111 15.7143H10.8333C10.4361 15.7143 10.1111 15.3929 10.1111 15Z"
        fill="#0466C8" />
</svg>