<svg width="31" height="32" viewBox="0 0 31 32" fill="none" xmlns="http://www.w3.org/2000/svg">
    <path
        d="M16 16C18.2091 16 20 14.2091 20 12C20 9.79086 18.2091 8 16 8C13.7909 8 12 9.79086 12 12C12 14.2091 13.7909 16 16 16Z"
        stroke="#111111" stroke-linecap="round" stroke-linejoin="round" />
    <path
        d="M2.66666 8.38103H4.51281V6.47627C4.51281 5.46592 4.90182 4.49696 5.59426 3.78253C6.2867 3.06811 7.22586 2.66675 8.20512 2.66675H22.9743C23.9536 2.66675 24.8928 3.06811 25.5852 3.78253C26.2776 4.49696 26.6667 5.46592 26.6667 6.47627V25.5239C26.6667 26.5342 26.2776 27.5032 25.5852 28.2176C24.8928 28.9321 23.9536 29.3334 22.9743 29.3334H8.20512C7.22586 29.3334 6.2867 28.9321 5.59426 28.2176C4.90182 27.5032 4.51281 26.5342 4.51281 25.5239V23.6191H2.66666M2.66666 16.0001H4.51281M2.66666 12.1906H4.51281M2.66666 19.8096H4.51281"
        stroke="#111111" stroke-linecap="round" stroke-linejoin="round" />
    <path fill-rule="evenodd" clip-rule="evenodd"
        d="M21.3333 22V20C21.3333 18.9391 20.9587 17.9217 20.2919 17.1716C19.6251 16.4214 18.7208 16 17.7778 16H14.2222C13.2792 16 12.3749 16.4214 11.7081 17.1716C11.0413 17.9217 10.6667 18.9391 10.6667 20V22C10.6667 22.5304 10.854 23.0391 11.1874 23.4142C11.5208 23.7893 11.9729 24 12.4444 24H19.5555C20.027 24 20.4792 23.7893 20.8126 23.4142C21.146 23.0391 21.3333 22.5304 21.3333 22Z"
        stroke="#111111" stroke-linecap="round" stroke-linejoin="round" />
</svg>