<svg width="26" height="26" viewBox="0 0 26 26" fill="none" xmlns="http://www.w3.org/2000/svg">
    <path
        d="M7.54545 18.4545C3.14909 13.8662 3.14909 6.58327 7.54545 2.09091L23.9091 18.4545C19.4167 22.8509 12.1338 22.8509 7.54545 18.4545ZM7.54545 18.4545C3.95091 18.4545 1 21.6727 1 25H14.0909C14.0909 23.7575 13.6873 22.7811 13 21.7273M16.2727 9.72727L20.6364 5.36364M22.2727 1C21.5494 1 20.8557 1.28734 20.3443 1.7988C19.8328 2.31026 19.5455 3.00396 19.5455 3.72727C19.5455 4.45059 19.8328 5.14428 20.3443 5.65575C20.8557 6.16721 21.5494 6.45455 22.2727 6.45455C22.996 6.45455 23.6897 6.16721 24.2012 5.65575C24.7127 5.14428 25 4.45059 25 3.72727C25 3.00396 24.7127 2.31026 24.2012 1.7988C23.6897 1.28734 22.996 1 22.2727 1Z"
        stroke="#0466C8" stroke-width="2" />
</svg>