<svg width="29" height="24" viewBox="0 0 29 24" fill="none" xmlns="http://www.w3.org/2000/svg">
    <rect x="1.5" y="18" width="2" height="5" fill="#FFCD29" />
    <path
        d="M22.1289 10.3472C22.5026 11.0139 22.7806 11.7083 22.9629 12.4306C23.1452 13.1528 23.2409 13.8981 23.25 14.6667V16.0972L14.5 20.5556L5.75 16.0972C5.75 15.5417 5.75456 15.0231 5.76367 14.5417C5.77279 14.0602 5.8138 13.5926 5.88672 13.1389C5.95964 12.6852 6.06901 12.2315 6.21484 11.7778C6.36068 11.3241 6.57943 10.8472 6.87109 10.3472L4 8.88889V17.0417C4.26432 17.1343 4.5013 17.2639 4.71094 17.4306C4.92057 17.5972 5.10742 17.7917 5.27148 18.0139C5.43555 18.2361 5.55404 18.4769 5.62695 18.7361C5.69987 18.9954 5.74089 19.2685 5.75 19.5556V24H0.5V19.5556C0.5 19.2778 0.541016 19.0093 0.623047 18.75C0.705078 18.4907 0.823568 18.2454 0.978516 18.0139C1.13346 17.7824 1.31576 17.588 1.52539 17.4306C1.73503 17.2731 1.97656 17.1435 2.25 17.0417V8L0.5 7.11111L14.5 0L28.5 7.11111L22.1289 10.3472ZM4 19.5556C4 19.3148 3.91341 19.1065 3.74023 18.9306C3.56706 18.7546 3.36198 18.6667 3.125 18.6667C2.88802 18.6667 2.68294 18.7546 2.50977 18.9306C2.33659 19.1065 2.25 19.3148 2.25 19.5556V22.2222H4V19.5556ZM4.41016 7.11111L14.5 12.2361L24.5898 7.11111L14.5 1.98611L4.41016 7.11111ZM21.5 15C21.5 14.287 21.4316 13.625 21.2949 13.0139C21.1582 12.4028 20.9167 11.7778 20.5703 11.1389L14.5 14.2222L8.42969 11.1389C8.12891 11.6759 7.90104 12.2407 7.74609 12.8333C7.59115 13.4259 7.50911 14.037 7.5 14.6667V15L14.5 18.5556L21.5 15Z"
        fill="#0466C8" />
</svg>