<svg width="17" height="24" viewBox="0 0 17 24" fill="none" xmlns="http://www.w3.org/2000/svg">
    <path d="M8.6 5L5 10.4H7.4V14L11 8.6H8.6V5Z" fill="#FFCD29" />
    <path fill-rule="evenodd" clip-rule="evenodd"
        d="M16.9453 8.95314C16.7609 10.4628 16.1324 11.8899 15.1342 13.0654C14.5501 13.7548 13.0656 15.7221 12.7499 17H4.24983C3.93411 15.7209 2.44781 13.753 1.86374 13.0636C0.865925 11.8876 0.238045 10.4601 0.0544392 8.95021C-0.126513 7.44351 0.145819 5.91838 0.838873 4.55718C1.53805 3.18533 2.62558 2.03287 3.9754 1.23338C5.33644 0.425302 6.90329 -0.00171006 8.50107 5.14691e-06C10.1027 5.14691e-06 11.6716 0.427936 13.0267 1.23514C14.3762 2.03496 15.4633 3.18761 16.1621 4.55952C16.8548 5.92102 17.1267 7.44637 16.9453 8.95314ZM11.8896 15.8276H5.10955C4.8509 15.2513 4.50543 14.6739 4.18365 14.1833C3.76006 13.5386 3.29953 12.9172 2.80421 12.3221C1.95317 11.3194 1.41757 10.1023 1.26084 8.8148C1.10664 7.53169 1.33851 6.23285 1.9287 5.07362C2.52702 3.90044 3.45752 2.91504 4.61229 2.23169C5.78183 1.53747 7.12819 1.17073 8.50107 1.17242C9.87929 1.17242 11.2272 1.54114 12.3898 2.23345C13.5442 2.91697 14.4742 3.90236 15.0722 5.07538C15.6621 6.2349 15.8936 7.53395 15.7389 8.81714C15.5816 10.1043 15.0455 11.321 14.1943 12.3232C13.6981 12.9176 13.2378 13.5391 12.8155 14.1844C12.4937 14.6751 12.1482 15.2513 11.8896 15.8276Z"
        fill="#0466C8" />
    <path
        d="M4 19.5C4 19.3674 4.06773 19.2402 4.18829 19.1464C4.30885 19.0527 4.47236 19 4.64286 19H12.3571C12.5276 19 12.6912 19.0527 12.8117 19.1464C12.9323 19.2402 13 19.3674 13 19.5C13 19.6326 12.9323 19.7598 12.8117 19.8536C12.6912 19.9473 12.5276 20 12.3571 20H4.64286C4.47236 20 4.30885 19.9473 4.18829 19.8536C4.06773 19.7598 4 19.6326 4 19.5Z"
        fill="#0466C8" />
    <path fill-rule="evenodd" clip-rule="evenodd"
        d="M4 21H13V22.8C13 23.1183 12.8645 23.4235 12.6234 23.6485C12.3823 23.8736 12.0553 24 11.7143 24H5.28571C4.94472 24 4.6177 23.8736 4.37658 23.6485C4.13546 23.4235 4 23.1183 4 22.8V21ZM5.28571 22.2H11.7143V22.8H5.28571V22.2Z"
        fill="#0466C8" />
</svg>