<svg width="25" height="24" viewBox="0 0 25 24" fill="none" xmlns="http://www.w3.org/2000/svg">
    <path
        d="M9.54416 22.5H11.0515V24H0.5V0H12.5589V4.5H9.54416V15.2812L22.3214 8.92969L24.5 13.2773L9.54416 20.7188V22.5ZM9.54416 19.0312L12.5589 17.5312V15.4688L9.54416 16.9688V19.0312ZM14.0662 16.7812L17.081 15.2812V13.2188L14.0662 14.7188V16.7812ZM21.6384 10.9453L18.5883 12.4688V14.5312L22.4745 12.5977L21.6384 10.9453ZM8.0368 15V7.5H5.02208V15H8.0368ZM2.00736 3H11.0515V1.5H2.00736V3ZM8.0368 22.5V16.5H3.51472V6H8.0368V4.5H2.00736V22.5H8.0368Z"
        fill="#0466C8" />
</svg>