<svg width="14" height="24" viewBox="0 0 14 24" fill="none" xmlns="http://www.w3.org/2000/svg">
    <path
        d="M10.8049 5.41361V2.10937H11.0767C11.347 2.10937 11.6062 1.99826 11.7973 1.80046C11.9884 1.60267 12.0958 1.33441 12.0958 1.05469C12.0958 0.774967 11.9884 0.506703 11.7973 0.308911C11.6062 0.111119 11.347 0 11.0767 0L2.92334 0C2.65305 0 2.39382 0.111119 2.20269 0.308911C2.01156 0.506703 1.90418 0.774967 1.90418 1.05469C1.90418 1.33441 2.01156 1.60267 2.20269 1.80046C2.39382 1.99826 2.65305 2.10937 2.92334 2.10937H3.1951V5.41361C2.45268 5.50621 1.76869 5.8768 1.27218 6.45546C0.775681 7.03412 0.501009 7.78083 0.5 8.55469V18.5391C0.500162 19.0544 0.621982 19.5618 0.854865 20.0173C1.08775 20.4728 1.42464 20.8625 1.83624 21.1525V22.2422C1.83674 22.7082 2.01587 23.155 2.33431 23.4846C2.65275 23.8141 3.0845 23.9995 3.53484 24H10.4652C10.9155 23.9995 11.3473 23.8141 11.6657 23.4846C11.9841 23.155 12.1633 22.7082 12.1638 22.2422V21.1525C12.5754 20.8625 12.9123 20.4728 13.1451 20.0173C13.378 19.5618 13.4998 19.0544 13.5 18.5391V8.55469C13.499 7.78083 13.2243 7.03412 12.7278 6.45546C12.2313 5.8768 11.5473 5.50621 10.8049 5.41361ZM2.92334 1.40625C2.83325 1.40625 2.74684 1.36921 2.68313 1.30328C2.61942 1.23735 2.58362 1.14793 2.58362 1.05469C2.58362 0.961447 2.61942 0.872026 2.68313 0.806095C2.74684 0.740165 2.83325 0.703125 2.92334 0.703125H11.0767C11.1668 0.703125 11.2532 0.740165 11.3169 0.806095C11.3806 0.872026 11.4164 0.961447 11.4164 1.05469C11.4164 1.14793 11.3806 1.23735 11.3169 1.30328C11.2532 1.36921 11.1668 1.40625 11.0767 1.40625H2.92334ZM10.1255 2.10937V5.39062H9.31008V2.10937H10.1255ZM7.85233 3.69949H6.14767C6.05757 3.69949 5.97116 3.73652 5.90745 3.80246C5.84374 3.86839 5.80795 3.95781 5.80795 4.05105C5.80795 4.14429 5.84374 4.23371 5.90745 4.29964C5.97116 4.36557 6.05757 4.40261 6.14767 4.40261H6.66028V5.39062H5.36936V2.10937H8.63064V5.39062H7.33972V4.40261H7.85233C7.94243 4.40261 8.02884 4.36557 8.09255 4.29964C8.15626 4.23371 8.19205 4.14429 8.19205 4.05105C8.19205 3.95781 8.15626 3.86839 8.09255 3.80246C8.02884 3.73652 7.94243 3.69949 7.85233 3.69949ZM4.68992 2.10937V5.39062H3.87454V2.10937H4.68992ZM11.4843 22.2422C11.484 22.5218 11.3765 22.7899 11.1855 22.9876C10.9944 23.1853 10.7354 23.2966 10.4652 23.2969H3.53484C3.26464 23.2966 3.00558 23.1853 2.81452 22.9876C2.62345 22.7899 2.51598 22.5218 2.51568 22.2422V21.5138C2.84961 21.6393 3.2022 21.7034 3.55749 21.7031H10.4425C10.7978 21.7034 11.1504 21.6393 11.4843 21.5138V22.2422ZM12.8206 18.5391C12.8198 19.1915 12.5691 19.817 12.1233 20.2784C11.6774 20.7398 11.073 20.9993 10.4425 21H3.55749C2.92701 20.9993 2.32256 20.7398 1.87674 20.2784C1.43093 19.817 1.27218 19.2138 1.27218 18.5391V8.55469C1.27289 7.90223 1.39805 7.49584 1.84387 7.03448C2.28969 6.57313 2.92701 6.09449 3.55749 6.09375H10.4425C11.073 6.09449 11.6774 6.354 12.1233 6.81535C12.5691 7.27671 12.8198 7.90223 12.8206 8.55469V18.5391Z"
        fill="#0466C8" />
    <path
        d="M9.5 14.8525C9.5 15.0517 9.47635 15.2421 9.42906 15.4238C9.38177 15.6054 9.31538 15.7763 9.22988 15.9364C9.14439 16.0966 9.0398 16.2421 8.91611 16.373C8.79242 16.5038 8.65782 16.6151 8.5123 16.7069C8.36679 16.7987 8.20763 16.871 8.03482 16.9237C7.86202 16.9765 7.68376 17.0018 7.50005 16.9999C7.31451 16.9999 7.13717 16.9745 6.968 16.9237C6.79884 16.8729 6.63968 16.8017 6.49052 16.7099C6.34137 16.6181 6.20586 16.5058 6.08398 16.373C5.96211 16.2401 5.85843 16.0956 5.77294 15.9394C5.68745 15.7831 5.62015 15.6122 5.57104 15.4267C5.52193 15.2411 5.49828 15.0497 5.5001 14.8525C5.5001 14.6591 5.52283 14.4687 5.56831 14.2812C5.61378 14.0937 5.68563 13.9169 5.78386 13.7509C5.82205 13.833 5.86298 13.914 5.90664 13.9941C5.95029 14.0742 6.00031 14.1455 6.0567 14.208C6.11309 14.2705 6.17857 14.3222 6.25315 14.3632C6.32773 14.4042 6.41231 14.4238 6.50689 14.4218C6.59057 14.4218 6.66878 14.4052 6.74154 14.372C6.8143 14.3388 6.87796 14.2919 6.93253 14.2314C6.9871 14.1708 7.02985 14.1025 7.06077 14.0263C7.09169 13.9501 7.10806 13.8662 7.10988 13.7744C7.10988 13.6982 7.09897 13.6298 7.07714 13.5693C7.05531 13.5087 7.02439 13.4472 6.98437 13.3847C6.93708 13.3125 6.89615 13.2421 6.86159 13.1738C6.82703 13.1054 6.79702 13.0361 6.77155 12.9658C6.74609 12.8955 6.72881 12.8213 6.71971 12.7431C6.71062 12.665 6.70425 12.581 6.70061 12.4912C6.70061 12.3056 6.73063 12.1279 6.79065 11.958C6.85068 11.7881 6.93526 11.6367 7.0444 11.5039C7.15354 11.3711 7.28086 11.2598 7.42638 11.1699C7.5719 11.0801 7.73197 11.0234 7.90659 11C7.93387 11.418 8.02482 11.8008 8.17943 12.1484C8.33404 12.4961 8.54686 12.8193 8.81789 13.1181C9.0398 13.3623 9.20897 13.6269 9.32538 13.9121C9.44179 14.1972 9.5 14.5107 9.5 14.8525Z"
        fill="#0466C8" fill-opacity="0.5" />
</svg>