<svg width="24" height="31" viewBox="0 0 24 31" fill="none" xmlns="http://www.w3.org/2000/svg">
    <g clip-path="url(#clip0_34_300)">
        <path
            d="M15.2727 28.7857H21.8182V8.85714H17.4545V9.41071C17.4545 9.87202 17.2955 10.2641 16.9773 10.5871C16.6591 10.91 16.2727 11.0714 15.8182 11.0714H8.18182C7.72727 11.0714 7.34091 10.91 7.02273 10.5871C6.70455 10.2641 6.54545 9.87202 6.54545 9.41071V8.85714H2.18182V28.7857H8.72727V24.9107C8.72727 24.7608 8.78125 24.631 8.8892 24.5215C8.99716 24.4119 9.125 24.3571 9.27273 24.3571H14.7273C14.875 24.3571 15.0028 24.4119 15.1108 24.5215C15.2188 24.631 15.2727 24.7608 15.2727 24.9107V28.7857ZM15.2727 8.30357V2.76786C15.2727 2.61793 15.2188 2.48819 15.1108 2.37863C15.0028 2.26907 14.875 2.21429 14.7273 2.21429H13.6364C13.4886 2.21429 13.3608 2.26907 13.2528 2.37863C13.1449 2.48819 13.0909 2.61793 13.0909 2.76786V4.42857H10.9091V2.76786C10.9091 2.61793 10.8551 2.48819 10.7472 2.37863C10.6392 2.26907 10.5114 2.21429 10.3636 2.21429H9.27273C9.125 2.21429 8.99716 2.26907 8.8892 2.37863C8.78125 2.48819 8.72727 2.61793 8.72727 2.76786V8.30357C8.72727 8.4535 8.78125 8.58324 8.8892 8.6928C8.99716 8.80236 9.125 8.85714 9.27273 8.85714H10.3636C10.5114 8.85714 10.6392 8.80236 10.7472 8.6928C10.8551 8.58324 10.9091 8.4535 10.9091 8.30357V6.64286H13.0909V8.30357C13.0909 8.4535 13.1449 8.58324 13.2528 8.6928C13.3608 8.80236 13.4886 8.85714 13.6364 8.85714H14.7273C14.875 8.85714 15.0028 8.80236 15.1108 8.6928C15.2188 8.58324 15.2727 8.4535 15.2727 8.30357ZM24 7.75V29.8929C24 30.1927 23.892 30.4522 23.6761 30.6713C23.4602 30.8904 23.2045 31 22.9091 31H1.09091C0.795455 31 0.539773 30.8904 0.323864 30.6713C0.107955 30.4522 0 30.1927 0 29.8929V7.75C0 7.45015 0.107955 7.19066 0.323864 6.97154C0.539773 6.75242 0.795455 6.64286 1.09091 6.64286H6.54545V1.66071C6.54545 1.1994 6.70455 0.807292 7.02273 0.484375C7.34091 0.161458 7.72727 0 8.18182 0H15.8182C16.2727 0 16.6591 0.161458 16.9773 0.484375C17.2955 0.807292 17.4545 1.1994 17.4545 1.66071V6.64286H22.9091C23.2045 6.64286 23.4602 6.75242 23.6761 6.97154C23.892 7.19066 24 7.45015 24 7.75Z"
            fill="#0466C8" />
        <rect x="5" y="14" width="3" height="3" fill="#0466C8" fill-opacity="0.5" />
        <rect x="5" y="19" width="3" height="3" fill="#0466C8" fill-opacity="0.5" />
        <rect x="9" y="14" width="3" height="3" fill="#0466C8" fill-opacity="0.5" />
        <rect x="9" y="19" width="3" height="3" fill="#0466C8" fill-opacity="0.5" />
        <rect x="13" y="14" width="3" height="3" fill="#0466C8" fill-opacity="0.5" />
        <rect x="13" y="19" width="3" height="3" fill="#0466C8" fill-opacity="0.5" />
        <rect x="17" y="14" width="3" height="3" fill="#0466C8" fill-opacity="0.5" />
        <rect x="17" y="19" width="3" height="3" fill="#0466C8" fill-opacity="0.5" />
    </g>
    <defs>
        <clipPath id="clip0_34_300">
            <rect width="24" height="31" fill="white" />
        </clipPath>
    </defs>
</svg>