<svg width="25" height="21" viewBox="0 0 25 21" fill="none" xmlns="http://www.w3.org/2000/svg">
    <path
        d="M0.5 10.4248C0.5 10.9041 0.890137 11.1938 1.37321 11.1938C1.67129 11.1938 1.90756 11.0541 2.11315 10.8543L12.1405 1.97691C12.2532 1.86699 12.3768 1.82694 12.5101 1.82694C12.6337 1.82694 12.7468 1.86699 12.8695 1.97691L22.8868 10.8543C23.1025 11.0541 23.3388 11.1938 23.6268 11.1938C24.1094 11.1938 24.5 10.9041 24.5 10.4248C24.5 10.1253 24.3869 9.93569 24.1918 9.76569L20.6368 6.62052V0.718761C20.6368 0.279494 20.3492 0 19.8973 0H18.5515C18.1096 0 17.8015 0.279494 17.8015 0.718761V4.11402L13.7327 0.498915C13.3732 0.169571 12.9313 0.0102255 12.5 0.0102255C12.0682 0.0102255 11.6369 0.169997 11.2669 0.499341L0.808164 9.76569C0.623178 9.93569 0.5 10.1253 0.5 10.4248ZM3.4383 18.8028C3.4383 20.1909 4.30142 21 5.74975 21H9.91107V13.8997C9.91107 13.4404 10.2293 13.1413 10.7019 13.1413H14.3288C14.8014 13.1413 15.1095 13.4404 15.1095 13.8997V21H19.2603C20.7087 21 21.5617 20.1909 21.5617 18.8028V11.4934L12.8388 3.85413C12.7258 3.75443 12.6026 3.70458 12.4794 3.70458C12.3663 3.70458 12.2532 3.75443 12.13 3.86435L3.4383 11.5432V18.8028Z"
        fill="#0466C8" />
</svg>