<svg width="27" height="24" viewBox="0 0 27 24" fill="none" xmlns="http://www.w3.org/2000/svg">
    <path
        d="M1.5 7.8913C1.5 1.5 7.96154 1.5 13.5 1.5C19.0385 1.5 25.5 1.5 25.5 7.8913C25.5 15.1957 19.0385 6.97826 19.0385 6.97826H7.96154C7.96154 6.97826 1.5 15.1957 1.5 7.8913ZM8.88462 9.71739C8.88462 9.71739 4.26923 14.2826 4.26923 22.5H22.7308C22.7308 14.2826 18.1154 9.71739 18.1154 9.71739H8.88462Z"
        stroke="#0466C8" stroke-width="2" stroke-linecap="round" stroke-linejoin="round" />
    <path
        d="M13.5 19.5C15.433 19.5 17 17.933 17 16C17 14.067 15.433 12.5 13.5 12.5C11.567 12.5 10 14.067 10 16C10 17.933 11.567 19.5 13.5 19.5Z"
        stroke="#0466C8" stroke-opacity="0.5" stroke-width="1.5" stroke-linecap="round" stroke-linejoin="round" />
</svg>