<svg width="23" height="24" viewBox="0 0 23 24" fill="none" xmlns="http://www.w3.org/2000/svg">
    <path fill-rule="evenodd" clip-rule="evenodd"
        d="M22.5 16.6149C22.5 21.7097 17.9165 24 11.5 24C5.08347 24 0.5 21.7097 0.5 16.6509C0.5 11.1121 3.25042 8.30586 8.74957 5.4996L6.80249 1.84649C6.68632 1.66351 6.62163 1.45221 6.61531 1.23511C6.609 1.01802 6.66131 0.803267 6.76665 0.613759C6.87199 0.424252 7.02643 0.267093 7.21348 0.159042C7.40054 0.0509901 7.6132 -0.00390286 7.82879 0.000215847H15.6018C15.8039 0.00542378 16.0013 0.0623355 16.1756 0.165595C16.3498 0.268854 16.4951 0.415065 16.5977 0.590467C16.7003 0.765869 16.757 0.964693 16.7623 1.16823C16.7676 1.37176 16.7215 1.57331 16.6281 1.75391L14.2504 5.4996C19.7479 8.26814 22.5 11.0744 22.5 16.6149ZM8.02282 11.143H10.8873C11.1256 11.215 11.4251 11.3487 11.6651 11.5715C11.8441 11.7362 11.9767 11.9456 12.0497 12.1784H8.02452C7.91277 12.1784 7.80211 12.2006 7.69886 12.2436C7.59561 12.2867 7.5018 12.3498 7.42278 12.4294C7.34375 12.509 7.28107 12.6035 7.2383 12.7075C7.19554 12.8115 7.17353 12.923 7.17353 13.0355C7.17353 13.1481 7.19554 13.2595 7.2383 13.3635C7.28107 13.4675 7.34375 13.562 7.42278 13.6416C7.5018 13.7212 7.59561 13.7843 7.69886 13.8274C7.80211 13.8705 7.91277 13.8927 8.02452 13.8927H11.7808C11.488 14.2195 11.1172 14.4656 10.7035 14.6075C10.17 14.8039 9.60843 14.9122 9.04061 14.9281H9.01509C8.84185 14.9282 8.67279 14.9816 8.53049 15.0811C8.3882 15.1807 8.27944 15.3215 8.21875 15.485C8.15807 15.6484 8.14835 15.8266 8.19089 15.9957C8.23343 16.1649 8.32621 16.3169 8.45683 16.4315L8.46023 16.4349L8.46874 16.4401L8.49087 16.4606C8.61109 16.5645 8.73544 16.6635 8.86361 16.7572C10.3323 17.8595 12.001 18.6614 13.7756 19.1178C13.8849 19.148 13.9992 19.1559 14.1117 19.1409C14.2241 19.126 14.3324 19.0887 14.4303 19.031C14.5282 18.9733 14.6137 18.8965 14.6817 18.8051C14.7497 18.7136 14.7989 18.6095 14.8263 18.4986C14.8538 18.3878 14.8589 18.2725 14.8416 18.1597C14.8242 18.0468 14.7845 17.9386 14.725 17.8413C14.6655 17.7441 14.5873 17.6598 14.495 17.5935C14.4026 17.5271 14.2981 17.48 14.1875 17.4549C13.1462 17.1866 12.1447 16.7808 11.209 16.2481L11.3009 16.2138C11.8761 15.9961 12.5093 15.6498 13.0029 15.0892C13.3007 14.7549 13.5339 14.3555 13.6786 13.8927H14.9755C15.2012 13.8927 15.4176 13.8024 15.5772 13.6416C15.7368 13.4809 15.8265 13.2629 15.8265 13.0355C15.8265 12.8082 15.7368 12.5902 15.5772 12.4294C15.4176 12.2687 15.2012 12.1784 14.9755 12.1784H13.7943C13.7401 11.8167 13.6262 11.4667 13.4573 11.143H14.9755C15.2012 11.143 15.4176 11.0527 15.5772 10.8919C15.7368 10.7312 15.8265 10.5132 15.8265 10.2858C15.8265 10.0585 15.7368 9.8405 15.5772 9.67975C15.4176 9.51901 15.2012 9.4287 14.9755 9.4287H8.02452C7.79882 9.4287 7.58237 9.51901 7.42278 9.67975C7.26318 9.8405 7.17353 10.0585 7.17353 10.2858C7.17353 10.5132 7.26318 10.7312 7.42278 10.8919C7.58237 11.0527 7.79882 11.143 8.02452 11.143H8.02282Z"
        fill="#0466C8" />
</svg>