<svg width="17" height="28" viewBox="0 0 17 28" fill="none" xmlns="http://www.w3.org/2000/svg">
    <path
        d="M15.1111 0H1.88889C1.38792 0 0.907478 0.210714 0.553243 0.585786C0.199008 0.960859 0 1.46957 0 2V26C0 26.5304 0.199008 27.0391 0.553243 27.4142C0.907478 27.7893 1.38792 28 1.88889 28H15.1111C15.6121 28 16.0925 27.7893 16.4468 27.4142C16.801 27.0391 17 26.5304 17 26V2C17 1.46957 16.801 0.960859 16.4468 0.585786C16.0925 0.210714 15.6121 0 15.1111 0ZM9.44444 26H7.55556V24H9.44444V26ZM1.88889 22V2H15.1111V22H1.88889Z"
        fill="#0466C8" />
    <path d="M7 14.6364H4.5L8 7V11.3636H10.5L7 19V14.6364Z" fill="#FFCD29" />
</svg>