<svg width="26" height="26" viewBox="0 0 26 26" fill="none" xmlns="http://www.w3.org/2000/svg">
    <path fill-rule="evenodd" clip-rule="evenodd"
        d="M11.1667 2.42667C11.5513 2.14971 12.0192 2 12.5 2C12.9808 2 13.4487 2.14971 13.8333 2.42667L21.6111 8.02667C21.8871 8.22538 22.1111 8.48305 22.2654 8.77928C22.4197 9.0755 22.5 9.40214 22.5 9.73333V19.8667C22.5 20.4325 22.2659 20.9751 21.8491 21.3752C21.4324 21.7752 20.8671 22 20.2778 22H4.72222C4.13285 22 3.56762 21.7752 3.15087 21.3752C2.73413 20.9751 2.5 20.4325 2.5 19.8667V9.73333C2.5 9.40214 2.58032 9.0755 2.73461 8.77928C2.88889 8.48305 3.1129 8.22538 3.38889 8.02667L11.1667 2.42667ZM12.5 4.13333L4.72222 9.73333V19.8667H20.2778V9.73333L12.5 4.13333Z"
        fill="#0466C8" />
    <path
        d="M9.92285 13.0972V12.6836C9.92285 12.3864 9.9873 12.116 10.1162 11.8726C10.2451 11.6291 10.4367 11.4339 10.6909 11.2871C10.9487 11.1403 11.2638 11.0669 11.6362 11.0669C12.0229 11.0669 12.3434 11.1403 12.5977 11.2871C12.8519 11.4339 13.0417 11.6291 13.167 11.8726C13.2959 12.116 13.3604 12.3864 13.3604 12.6836V13.0972C13.3604 13.3872 13.2959 13.654 13.167 13.8975C13.0417 14.141 12.8519 14.3361 12.5977 14.4829C12.347 14.6297 12.0319 14.7031 11.6523 14.7031C11.2728 14.7031 10.9541 14.6297 10.6963 14.4829C10.4421 14.3361 10.2487 14.141 10.1162 13.8975C9.9873 13.654 9.92285 13.3872 9.92285 13.0972ZM11.0186 12.6836V13.0972C11.0186 13.2153 11.0418 13.3263 11.0884 13.4302C11.1349 13.534 11.2048 13.6182 11.2979 13.6826C11.391 13.7471 11.5073 13.7793 11.647 13.7793C11.7902 13.7793 11.9066 13.7471 11.9961 13.6826C12.0856 13.6182 12.1519 13.534 12.1948 13.4302C12.2414 13.3263 12.2646 13.2153 12.2646 13.0972V12.6836C12.2646 12.5618 12.2414 12.4491 12.1948 12.3452C12.1519 12.2378 12.0838 12.1519 11.9907 12.0874C11.8976 12.0229 11.7795 11.9907 11.6362 11.9907C11.5002 11.9907 11.3856 12.0229 11.2925 12.0874C11.203 12.1519 11.1349 12.2378 11.0884 12.3452C11.0418 12.4491 11.0186 12.5618 11.0186 12.6836ZM13.6504 17.4961V17.0825C13.6504 16.7889 13.7148 16.5203 13.8438 16.2769C13.9762 16.0334 14.1696 15.8382 14.4238 15.6914C14.6816 15.5446 14.9985 15.4712 15.3745 15.4712C15.7576 15.4712 16.0763 15.5446 16.3306 15.6914C16.5848 15.8382 16.7746 16.0334 16.8999 16.2769C17.0288 16.5203 17.0933 16.7889 17.0933 17.0825V17.4961C17.0933 17.7897 17.0288 18.0583 16.8999 18.3018C16.7746 18.5452 16.5848 18.7404 16.3306 18.8872C16.0799 19.034 15.7666 19.1074 15.3906 19.1074C15.0075 19.1074 14.687 19.034 14.4292 18.8872C14.1714 18.7404 13.9762 18.5452 13.8438 18.3018C13.7148 18.0583 13.6504 17.7897 13.6504 17.4961ZM14.7515 17.0825V17.4961C14.7515 17.6178 14.7783 17.7306 14.832 17.8345C14.8857 17.9383 14.9609 18.0225 15.0576 18.0869C15.1543 18.1514 15.2635 18.1836 15.3853 18.1836C15.5535 18.1836 15.6807 18.1514 15.7666 18.0869C15.8561 18.0225 15.917 17.9383 15.9492 17.8345C15.9814 17.7306 15.9976 17.6178 15.9976 17.4961V17.0825C15.9976 16.9608 15.9743 16.848 15.9277 16.7441C15.8848 16.6403 15.8167 16.5562 15.7236 16.4917C15.6305 16.4272 15.5142 16.395 15.3745 16.395C15.2349 16.395 15.1185 16.4272 15.0254 16.4917C14.9323 16.5562 14.8625 16.6403 14.8159 16.7441C14.7729 16.848 14.7515 16.9608 14.7515 17.0825ZM15.7935 12.3022L11.9746 18.4146L11.1743 18.001L14.9932 11.8887L15.7935 12.3022Z"
        fill="#0466C8" fill-opacity="0.5" />
</svg>