<svg width="44" height="44" viewBox="0 0 44 44" fill="none" xmlns="http://www.w3.org/2000/svg">
    <path
        d="M22 13C20.1306 13 18.3378 13.7375 17.016 15.0503C15.6942 16.363 14.9516 18.1435 14.9516 20V23.528C14.9517 23.6831 14.9155 23.8362 14.8458 23.975L13.117 27.408C13.0325 27.5757 12.9926 27.7621 13.0011 27.9494C13.0096 28.1368 13.0662 28.3188 13.1654 28.4783C13.2647 28.6379 13.4034 28.7695 13.5683 28.8608C13.7333 28.9521 13.919 29 14.1078 29H29.8922C30.081 29 30.2667 28.9521 30.4317 28.8608C30.5966 28.7695 30.7353 28.6379 30.8346 28.4783C30.9338 28.3188 30.9904 28.1368 30.9989 27.9494C31.0074 27.7621 30.9675 27.5757 30.883 27.408L29.1552 23.975C29.0851 23.8362 29.0486 23.6832 29.0484 23.528V20C29.0484 18.1435 28.3058 16.363 26.984 15.0503C25.6622 13.7375 23.8694 13 22 13ZM22 32C21.3751 32.0002 20.7655 31.8079 20.2552 31.4498C19.7448 31.0916 19.3589 30.5851 19.1504 30H24.8496C24.6411 30.5851 24.2552 31.0916 23.7448 31.4498C23.2345 31.8079 22.6249 32.0002 22 32Z"
        fill="white" />
</svg>