<svg width="178" height="150" viewBox="0 0 178 150" fill="none" xmlns="http://www.w3.org/2000/svg">
    <g clip-path="url(#clip0_92_596)">
        <path
            d="M95.4564 21.5131C101.31 17.0844 109.552 15.3866 116 18.8416C108.74 22.0698 102.83 27.8238 99.3139 35.0855C97.9678 37.8911 96.7559 41.1551 93.9786 42.4518C92.2506 43.2586 90.211 43.1028 88.4216 42.4514C86.6321 41.7998 85.0403 40.693 83.4707 39.5979L83 39.5399C85.7933 32.6572 89.6027 25.9418 95.4564 21.5131Z"
            fill="#F0F0F0" />
        <path
            d="M115.831 18.315C109.813 18.5008 104.007 20.5511 99.2386 24.1747C98.198 24.9368 97.2857 25.8559 96.5354 26.898C95.8377 27.9364 95.4349 29.1401 95.3688 30.3839C95.2836 31.5424 95.3324 32.7371 94.963 33.855C94.7652 34.4245 94.4476 34.9463 94.0309 35.3862C93.6142 35.8262 93.1079 36.1744 92.5451 36.4079C91.1582 37.0258 89.6288 37.1156 88.13 37.1522C86.466 37.1929 84.7369 37.2091 83.2235 37.9814C83.0401 38.075 82.9035 37.7891 83.0866 37.6956C85.7196 36.3519 88.7965 37.2286 91.5639 36.4289C92.8552 36.0557 94.0402 35.2966 94.5587 34.0267C95.0121 32.9162 94.9627 31.6841 95.0388 30.5104C95.0852 29.2961 95.4326 28.1115 96.0506 27.06C96.7447 25.9836 97.6195 25.0314 98.6376 24.2443C100.901 22.4363 103.439 20.9903 106.158 19.9593C109.255 18.7657 112.536 18.1031 115.86 18.0001C116.065 17.9938 116.036 18.3087 115.831 18.315Z"
            fill="white" />
        <path
            d="M100.619 23.911C100.069 22.9629 99.8771 21.8519 100.077 20.7764C100.277 19.7009 100.857 18.7309 101.711 18.0397C101.885 17.9005 102.111 18.1612 101.938 18.3006C101.14 18.9428 100.601 19.8464 100.417 20.8482C100.232 21.8501 100.415 22.8843 100.933 23.7642C101.045 23.9555 100.73 24.1012 100.619 23.911Z"
            fill="white" />
        <path
            d="M95.232 30.4995C97.4123 30.9488 99.7421 30.7757 101.757 30.0149C101.956 29.9394 102.105 30.1716 101.906 30.2471C99.8069 31.0359 97.3818 31.2123 95.1144 30.7412C94.8983 30.6962 95.0171 30.4548 95.232 30.4995Z"
            fill="white" />
        <path
            d="M109.292 19.0921C109.412 19.4769 109.622 19.8244 109.902 20.1033C110.183 20.3823 110.525 20.5841 110.898 20.6904C111.09 20.7443 110.985 21.0473 110.795 20.9937C110.382 20.8742 110.005 20.6509 109.694 20.3434C109.384 20.0359 109.15 19.6535 109.013 19.2296C108.997 19.1908 108.996 19.147 109.009 19.1072C109.023 19.0673 109.051 19.0344 109.087 19.0151C109.124 18.9971 109.166 18.9951 109.204 19.0095C109.243 19.0239 109.274 19.0536 109.292 19.0921Z"
            fill="white" />
        <path
            d="M121 42.5701C120.873 42.5392 120.746 42.5084 120.616 42.4795C118.904 42.0743 117.163 41.8109 115.409 41.6919C115.273 41.6805 115.136 41.671 115 41.6636C110.772 41.4226 106.536 41.9804 102.508 43.3087C100.905 43.8387 99.3449 44.4916 97.8402 45.2619C95.7621 46.3258 93.5923 47.647 91.3552 47.9434C91.1221 47.977 90.8872 47.9959 90.6518 48L82.3751 39.1628C82.3663 39.1331 82.3553 39.1053 82.3464 39.0755L82 38.738C82.0749 38.6928 82.1535 38.6475 82.2284 38.6023C82.2717 38.5759 82.3169 38.5514 82.3602 38.525C82.3896 38.508 82.4192 38.4911 82.4448 38.4741C82.4546 38.4684 82.4645 38.4628 82.4723 38.459C82.498 38.442 82.5236 38.4289 82.5472 38.4138C82.9859 38.1595 83.4272 37.9079 83.871 37.659C83.873 37.657 83.873 37.657 83.8768 37.6571C87.263 35.7692 90.8342 34.1516 94.5339 33.1354C94.6452 33.1049 94.7585 33.0723 94.8735 33.0458C96.5437 32.5972 98.2472 32.2878 99.967 32.1208C100.909 32.0324 101.855 31.9925 102.801 32.0012C105.245 32.0283 107.67 32.4454 109.986 33.2372C114.604 34.8164 118.673 37.8765 120.838 42.2354C120.893 42.3469 120.947 42.4566 121 42.5701Z"
            fill="#F0F0F0" />
        <path
            d="M120.72 42.2727C115.731 38.9828 109.758 37.2447 103.651 37.3054C102.336 37.2966 101.028 37.4815 99.7742 37.8533C98.5658 38.2522 97.4938 38.9461 96.6696 39.8628C95.8828 40.7032 95.1821 41.6478 94.1903 42.2949C93.6773 42.6191 93.0967 42.8383 92.4867 42.9383C91.8766 43.0382 91.2508 43.0166 90.6503 42.8748C89.1442 42.5579 87.8498 41.7545 86.6133 40.9278C85.2403 40.0099 83.8298 39.0361 82.1256 38.7656C81.9191 38.7328 81.9856 38.4355 82.1918 38.4683C85.1569 38.9389 87.1057 41.3666 89.8426 42.3312C91.1197 42.7814 92.5497 42.8748 93.7565 42.1961C94.8118 41.6025 95.5352 40.6289 96.324 39.7716C97.1139 38.8664 98.1292 38.1555 99.2812 37.7011C100.51 37.271 101.809 37.0393 103.121 37.0161C106.075 36.9197 109.026 37.2576 111.867 38.0174C115.115 38.8677 118.183 40.2307 120.938 42.0472C121.109 42.1597 120.89 42.3845 120.72 42.2727Z"
            fill="white" />
        <path
            d="M106.001 37.808C106.12 36.784 106.571 35.8389 107.275 35.1414C107.98 34.4439 108.89 34.0394 109.845 34.0001C110.038 33.9929 110.058 34.3168 109.864 34.324C108.975 34.3588 108.127 34.7357 107.472 35.3867C106.818 36.0377 106.401 36.9198 106.295 37.874C106.272 38.0814 105.978 38.0141 106.001 37.808Z"
            fill="white" />
        <path
            d="M97.3228 40.0746C98.6817 41.9592 100.661 43.2322 102.867 43.6397C103.086 43.6799 103.015 44.037 102.797 43.9969C100.502 43.5683 98.4448 42.2391 97.0348 40.2746C96.9005 40.0873 97.1893 39.8883 97.3228 40.0746Z"
            fill="white" />
        <path
            d="M115.524 39.2126C115.373 39.6347 115.334 40.0861 115.41 40.5261C115.487 40.9662 115.676 41.3813 115.962 41.734C116.108 41.9144 115.797 42.1079 115.651 41.9286C115.338 41.5375 115.129 41.0789 115.044 40.5929C114.958 40.1068 114.998 39.6081 115.161 39.1404C115.172 39.0951 115.201 39.0556 115.242 39.03C115.283 39.0045 115.332 38.9947 115.38 39.0027C115.428 39.0125 115.47 39.0401 115.497 39.0794C115.524 39.1187 115.534 39.1666 115.524 39.2126Z"
            fill="white" />
        <path
            d="M94 27.5659H93.3609V10.1056C93.3609 8.7785 93.0988 7.46441 92.5895 6.23834C92.0803 5.01228 91.3339 3.89825 90.3929 2.95986C89.4519 2.02147 88.3348 1.2771 87.1054 0.769245C85.8759 0.261391 84.5582 7.15436e-07 83.2275 0H46.1334C44.8027 -2.86163e-06 43.485 0.261382 42.2556 0.769232C41.0261 1.27708 39.909 2.02145 38.968 2.95984C38.027 3.89822 37.2806 5.01226 36.7714 6.23832C36.2621 7.46438 36 8.77847 36 10.1056V105.894C36 108.575 37.0676 111.145 38.968 113.04C40.8684 114.935 43.4459 116 46.1334 116H83.2274C85.915 116 88.4925 114.935 90.3928 113.04C92.2932 111.145 93.3609 108.575 93.3609 105.894V39.9945H94V27.5659Z"
            fill="#3F3D56" />
        <path
            d="M82.4913 3.00001H77.687C77.908 3.5457 77.9923 4.13774 77.9326 4.724C77.8729 5.31026 77.671 5.87273 77.3447 6.36187C77.0184 6.851 76.5777 7.25179 76.0614 7.52893C75.5452 7.80606 74.9691 7.95103 74.3841 7.95108H53.2988C52.7138 7.95104 52.1378 7.80606 51.6215 7.52893C51.1052 7.25179 50.6645 6.85101 50.3382 6.36187C50.0119 5.87273 49.81 5.31026 49.7503 4.724C49.6906 4.13774 49.775 3.54569 49.9959 3H45.5087C43.5172 3 41.6074 3.79695 40.1992 5.21554C38.7911 6.63412 38 8.55814 38 10.5643V106.436C38 107.429 38.1942 108.413 38.5716 109.33C38.9489 110.248 39.502 111.082 40.1992 111.784C40.8965 112.487 41.7242 113.044 42.6352 113.424C43.5462 113.804 44.5226 114 45.5087 114H82.4913C83.4774 114 84.4538 113.804 85.3648 113.424C86.2758 113.044 87.1035 112.487 87.8008 111.784C88.498 111.082 89.0511 110.248 89.4284 109.33C89.8058 108.413 90 107.429 90 106.436V10.5643C90 8.55813 89.2089 6.63412 87.8008 5.21554C86.3926 3.79696 84.4828 3.00001 82.4913 3.00001Z"
            fill="white" />
        <path
            d="M65.0006 83C62.242 83.0026 59.51 82.4611 56.961 81.4067C54.4119 80.3523 52.0958 78.8055 50.1452 76.855C48.1946 74.9044 46.6478 72.5884 45.5933 70.0394C44.5389 67.4904 43.9974 64.7585 44 62C43.9961 58.1266 45.0651 54.3277 47.0886 51.0247C49.112 47.7218 52.0108 45.0438 55.4634 43.2878C57.9661 42.0145 60.6984 41.255 63.4992 41.054C66.3 40.853 69.1127 41.2145 71.7716 42.1173C76.4805 43.722 80.4669 46.9459 83.0209 51.215C85.5749 55.4841 86.5305 60.5211 85.7177 65.429C84.9049 70.3368 82.3763 74.7968 78.5824 78.0146C74.7884 81.2324 69.9754 82.9991 65.0006 83ZM65.0006 41.8235C61.8147 41.8141 58.6728 42.5677 55.8378 44.0212C53.3597 45.2837 51.1694 47.0448 49.4043 49.1941C47.6393 51.3433 46.3376 53.8342 45.581 56.5104C44.8244 59.1866 44.6292 61.9903 45.0077 64.7455C45.3863 67.5007 46.3303 70.1479 47.7806 72.521C49.2308 74.894 51.156 76.9416 53.4353 78.5352C55.7146 80.1289 58.2987 81.2341 61.0254 81.7816C63.7522 82.3291 66.5627 82.307 69.2805 81.7167C71.9983 81.1264 74.5646 79.9806 76.8186 78.3513C77.9083 77.565 78.916 76.671 79.8263 75.6826C82.4889 72.8019 84.2536 69.2072 84.9044 65.3389C85.5552 61.4706 85.0638 57.4964 83.4904 53.9031C81.917 50.3098 79.3299 47.2532 76.0458 45.1077C72.7618 42.9622 68.9234 41.8209 65.0006 41.8235Z"
            fill="#F0F0F0" />
        <path
            d="M20.5804 43.0342C21.1648 43.1062 21.726 43.3031 22.2245 43.6111C22.723 43.9191 23.1467 44.3307 23.4657 44.817C23.7847 45.3032 23.9913 45.8522 24.0709 46.4253C24.1505 46.9984 24.1011 47.5817 23.9264 48.134L31 53.9207L28.4678 59L18.5954 50.6904C17.67 50.3405 16.9074 49.6695 16.4521 48.8043C15.9969 47.9392 15.8806 46.9401 16.1253 45.9964C16.3699 45.0527 16.9586 44.2299 17.7797 43.6839C18.6008 43.138 19.5973 42.9068 20.5804 43.0342Z"
            fill="#FFB6B6" />
        <path
            d="M84.9183 67.005C84.7794 65.5001 84.2053 62.7948 83.7181 61.7944C82.2205 57.8431 72.5437 54.5955 71.2443 54.1768L70.9147 50.483L57.4695 49.0247L55.7639 53.7484L50.9417 55.572C50.6143 55.6951 50.318 55.8896 50.074 56.1418C49.83 56.3939 49.6443 56.6973 49.5304 57.0303L45.204 58.2909L40.9348 59.5349L26.1029 49L25.4026 49.4614L20.7221 52.54L20 53.0151L39.1938 70.4708L46.3237 68.7846L51.6855 67.513L52.1431 69.386L50.958 75.9663C54.3915 79.4285 58.9363 81.5445 63.7773 81.9345C68.6184 82.3246 73.4389 80.9632 77.3743 78.0947L80.4202 75.3703C82.5431 73.0564 84.11 70.2817 85 67.2604L84.9183 67.005Z"
            fill="#E4E4E4" />
        <path
            d="M67.9461 46.1214C72.936 44.5001 75.6579 39.1436 74.0256 34.1572C72.3933 29.1709 67.025 26.443 62.035 28.0643C57.0451 29.6857 54.3232 35.0422 55.9555 40.0286C57.5878 45.0149 62.9562 47.7428 67.9461 46.1214Z"
            fill="#FFB6B6" />
        <path
            d="M57.8848 26.7703C58.8082 25.4229 60.1938 24.4797 61.7665 24.1283C63.3214 23.8015 64.9397 24.1048 66.2799 24.9742C67.7372 24.3743 69.3085 23.9763 70.8523 24.1787C72.396 24.381 73.9091 25.2621 74.6234 26.7138C74.7737 27.0898 74.956 27.4517 75.1682 27.7951C75.7976 28.6531 76.9671 28.7644 78 28.8056C77.4778 29.1168 76.9556 29.428 76.4332 29.7392C76.9537 29.987 77.4742 30.2349 77.9948 30.4828C77.2864 30.7591 76.5779 31.0355 75.8695 31.3118C77.5184 32.7929 77.9172 35.4287 77.2928 37.6386C76.7018 39.7309 75.3466 41.4921 73.8333 43C73.538 41.8749 73.8628 40.6551 74.0791 39.4902C74.3075 38.2594 74.344 36.8202 73.5007 35.9513C72.9318 35.3651 72.0973 35.188 71.3104 35.0458C67.3412 34.3285 63.3353 33.8424 59.3121 33.59C58.7737 33.514 58.2252 33.5712 57.7129 33.7569C56.7338 34.2014 56.3404 35.4224 56.0567 36.505C55.9208 34.6047 56.0294 32.6945 56.3797 30.8231C56.6481 29.3908 57.0709 27.9573 57.8848 26.7703Z"
            fill="#2F2E41" />
        <path
            d="M69.5472 92H58.4528C58.0675 92 57.698 91.842 57.4255 91.5607C57.1531 91.2794 57 90.8978 57 90.5C57 90.1022 57.1531 89.7206 57.4255 89.4393C57.698 89.158 58.0675 89 58.4528 89H69.5472C69.9325 89 70.302 89.158 70.5745 89.4393C70.8469 89.7206 71 90.1022 71 90.5C71 90.8978 70.8469 91.2794 70.5745 91.5607C70.302 91.842 69.9325 92 69.5472 92Z"
            fill="#0466C8" />
        <path
            d="M32.8943 12H1.10396C0.811015 11.9996 0.530217 11.894 0.323235 11.7065C0.116253 11.5191 0 11.2649 0 11C0 10.7351 0.116253 10.4809 0.323235 10.2935C0.530217 10.106 0.811015 10.0004 1.10396 10H32.8943C33.1875 10 33.4688 10.1054 33.6761 10.2929C33.8835 10.4804 34 10.7348 34 11C34 11.2652 33.8835 11.5196 33.6761 11.7071C33.4688 11.8946 33.1875 12 32.8943 12Z"
            fill="#0466C8" />
        <path
            d="M50.9019 19H1.09811C0.806872 19 0.527563 18.8946 0.321627 18.7071C0.115692 18.5196 0 18.2652 0 18C0 17.7348 0.115692 17.4804 0.321627 17.2929C0.527563 17.1054 0.806872 17 1.09811 17H50.9019C51.1931 17 51.4724 17.1054 51.6784 17.2929C51.8843 17.4804 52 17.7348 52 18C52 18.2652 51.8843 18.5196 51.6784 18.7071C51.4724 18.8946 51.1931 19 50.9019 19Z"
            fill="#0466C8" />
        <path
            d="M40.913 26H1.087C0.798709 26 0.522225 25.8946 0.318373 25.7071C0.114522 25.5196 0 25.2652 0 25C0 24.7348 0.114522 24.4804 0.318373 24.2929C0.522225 24.1054 0.798709 24 1.087 24H40.913C41.2013 24 41.4778 24.1054 41.6816 24.2929C41.8855 24.4804 42 24.7348 42 25C42 25.2652 41.8855 25.5196 41.6816 25.7071C41.4778 25.8946 41.2013 26 40.913 26Z"
            fill="#CACACA" />
        <path
            d="M23.8968 32H1.10326C0.810655 32 0.530036 31.8946 0.323135 31.7071C0.116234 31.5196 0 31.2652 0 31C0 30.7348 0.116234 30.4804 0.323135 30.2929C0.530036 30.1054 0.810655 30 1.10326 30H23.8968C24.1894 30 24.47 30.1054 24.6769 30.2929C24.8838 30.4804 25 30.7348 25 31C25 31.2652 24.8838 31.5196 24.6769 31.7071C24.47 31.8946 24.1894 32 23.8968 32Z"
            fill="#CACACA" />
        <path
            d="M35.9157 39H1.08428C0.796551 38.9996 0.52077 38.894 0.317477 38.7066C0.114183 38.5191 0 38.2649 0 38C0 37.7351 0.114183 37.4809 0.317477 37.2934C0.52077 37.106 0.796551 37.0004 1.08428 37H35.9157C36.2034 37.0004 36.4792 37.106 36.6825 37.2934C36.8858 37.4809 37 37.7351 37 38C37 38.2649 36.8858 38.5191 36.6825 38.7066C36.4792 38.894 36.2034 38.9996 35.9157 39Z"
            fill="#CACACA" />
        <path d="M134.999 146L132.289 146L131 135L135 135L134.999 146Z" fill="#9F616A" />
        <path
            d="M137 150L126 150V149.859C126 148.713 126.451 147.614 127.254 146.804C128.057 145.994 129.146 145.538 130.281 145.538H130.282L132.291 144L136.04 145.539L137 145.539L137 150Z"
            fill="#2F2E41" />
        <path
            d="M134.134 95.3835L132.939 79.9998L132 74.2256L137.256 73L139 80.9051L137.48 95.8104C137.787 96.207 137.974 96.6913 138.018 97.201C138.062 97.7108 137.96 98.2228 137.727 98.6712C137.493 99.1196 137.137 99.4839 136.706 99.7174C136.274 99.9509 135.787 100.043 135.305 99.9815C134.824 99.9201 134.371 99.7081 134.005 99.3729C133.639 99.0377 133.375 98.5944 133.25 98.1001C133.124 97.6058 133.14 97.0831 133.298 96.599C133.456 96.1149 133.747 95.6916 134.134 95.3835Z"
            fill="#9F616A" />
        <path d="M119.999 146L117.289 146L116 135L120 135L119.999 146Z" fill="#9F616A" />
        <path
            d="M116.251 98.3476L115.009 100.492C115.009 100.492 113.643 100.865 114.09 105.306C114.536 109.747 114.555 136.06 116.715 139.297L117.106 142.078L121.185 142.467L121.288 140L126.152 105.725C126.152 105.725 129.016 139.372 131.386 140.195L132.242 142.998L135.98 143L135.759 139.697L136 98L116.251 98.3476Z"
            fill="#2F2E41" />
        <path
            d="M114.088 100.849L114 100.827C116.637 91.1362 115.877 78.5878 114.014 65.1133L114.014 65.0574L120.747 59H126.593L132.388 62.6739C136.135 64.5141 136.986 68.411 136.994 68.4502L137 68.478L134.704 76.3494L136.434 99.1134L136.436 99.1398L136.426 99.1644C135.866 100.558 134.366 100.36 132.63 100.13C130.896 99.9004 124.508 102 122.549 102C118.721 102 114.362 100.918 114.088 100.849Z"
            fill="#E4E4E4" />
        <path d="M131.67 65.0889L134.131 64L137.372 68.0434L140 81L131 79.6127L131.67 65.0889Z" fill="#E4E4E4" />
        <path
            d="M93.2477 88.154L104.661 78.1487L108.627 74L113 77.4968L107.867 83.5449L95.0755 91.0906C94.9598 91.5697 94.6973 92.0047 94.3218 92.3397C93.9463 92.6747 93.4751 92.8943 92.9685 92.9703C92.462 93.0464 91.9433 92.9754 91.4791 92.7665C91.015 92.5577 90.6265 92.2204 90.3636 91.7981C90.1007 91.3758 89.9755 90.8877 90.004 90.3966C90.0324 89.9055 90.2133 89.4338 90.5233 89.042C90.8334 88.6503 91.2584 88.3564 91.7439 88.1982C92.2293 88.0399 92.753 88.0246 93.2477 88.154Z"
            fill="#9F616A" />
        <path
            d="M104 78.8454L107.049 74.8392C107.074 74.7818 109.604 69.0623 111.796 66.5772C114.045 64.0279 115.816 65.3316 115.834 65.3457L115.878 65.3793L116 74.7932L107.558 85L104 78.8454Z"
            fill="#E4E4E4" />
        <path
            d="M128.649 52.7697C129.081 50.0422 126.998 47.4488 123.998 46.9772C120.997 46.5055 118.214 48.3341 117.782 51.0616C117.35 53.789 119.433 56.3824 122.433 56.8541C125.434 57.3257 128.217 55.4971 128.649 52.7697Z"
            fill="#9F616A" />
        <path
            d="M118.819 51.1888C118.819 51.1888 118.776 49.3144 118.539 48.4851C118.302 47.6557 117.828 46.9448 118.065 46.9448C118.302 46.9448 118.42 46.3523 118.42 46.3523C118.42 46.3523 118.657 46.2339 118.776 46.3523C118.895 46.4708 119.013 45.5229 119.013 45.5229C119.013 45.5229 119.132 45.1675 119.25 45.4045C119.369 45.6414 119.369 45.5229 119.487 45.1675C119.606 44.812 120.199 44.5751 120.199 44.5751C120.199 44.5751 122.451 44.6935 122.807 44.2196C123.163 43.7457 127.193 44.1011 128.023 44.6935C128.853 45.286 132.528 47.4187 131.936 49.1959C131.343 50.9732 129.636 55.0653 129.209 55.4756C128.533 56.1244 128.065 56.3583 124.865 56.9945C124.239 57.1191 121.043 55.0763 121.043 54.7209C121.043 54.3654 121.428 53.2382 120.809 53.0834C119.872 52.8495 119.767 54.0325 119.53 53.677C119.293 53.3216 118.819 51.1888 118.819 51.1888Z"
            fill="#2F2E41" />
        <path
            d="M122 150L111 150V149.859C111 148.713 111.451 147.614 112.254 146.804C113.057 145.994 114.146 145.538 115.281 145.538H115.282L117.291 144L121.04 145.539L122 145.539L122 150Z"
            fill="#2F2E41" />
        <path
            d="M177.676 150H1.32439C1.23836 150 1.15585 149.947 1.09502 149.854C1.03418 149.76 1 149.633 1 149.5C1 149.367 1.03418 149.24 1.09502 149.146C1.15585 149.053 1.23836 149 1.32439 149H177.676C177.762 149 177.844 149.053 177.905 149.146C177.966 149.24 178 149.367 178 149.5C178 149.633 177.966 149.76 177.905 149.854C177.844 149.947 177.762 150 177.676 150Z"
            fill="#CACACA" />
    </g>
    <defs>
        <clipPath id="clip0_92_596">
            <rect width="178" height="150" fill="white" />
        </clipPath>
    </defs>
</svg>