<svg width="27" height="16" viewBox="0 0 27 16" fill="none" xmlns="http://www.w3.org/2000/svg">
    <path
        d="M24.0625 5C23.416 5 22.796 5.24834 22.3389 5.69039C21.8818 6.13244 21.625 6.73199 21.625 7.35714H18.375C18.375 6.73199 18.1182 6.13244 17.6611 5.69039C17.204 5.24834 16.584 5 15.9375 5H11.0625C10.416 5 9.79605 5.24834 9.33893 5.69039C8.88181 6.13244 8.625 6.73199 8.625 7.35714H5.375C5.375 6.73199 5.11819 6.13244 4.66107 5.69039C4.20395 5.24834 3.58397 5 2.9375 5H0.5V16H2.9375C3.58397 16 4.20395 15.7517 4.66107 15.3096C5.11819 14.8676 5.375 14.268 5.375 13.6429H8.625C8.625 14.268 8.88181 14.8676 9.33893 15.3096C9.79605 15.7517 10.416 16 11.0625 16H15.9375C16.584 16 17.204 15.7517 17.6611 15.3096C18.1182 14.8676 18.375 14.268 18.375 13.6429H21.625C21.625 14.268 21.8818 14.8676 22.3389 15.3096C22.796 15.7517 23.416 16 24.0625 16H26.5V5H24.0625ZM2.9375 14.4286H2.125V6.57143H2.9375C3.15299 6.57143 3.35965 6.65421 3.51202 6.80156C3.6644 6.94891 3.75 7.14876 3.75 7.35714V13.6429C3.75 13.8512 3.6644 14.0511 3.51202 14.1984C3.35965 14.3458 3.15299 14.4286 2.9375 14.4286ZM16.75 12.0714V13.6429C16.75 13.8512 16.6644 14.0511 16.512 14.1984C16.3597 14.3458 16.153 14.4286 15.9375 14.4286H11.0625C10.847 14.4286 10.6403 14.3458 10.488 14.1984C10.3356 14.0511 10.25 13.8512 10.25 13.6429V12.0714H5.375V8.92857H10.25V7.35714C10.25 7.14876 10.3356 6.94891 10.488 6.80156C10.6403 6.65421 10.847 6.57143 11.0625 6.57143H15.9375C16.153 6.57143 16.3597 6.65421 16.512 6.80156C16.6644 6.94891 16.75 7.14876 16.75 7.35714V8.92857H21.625V12.0714H16.75ZM24.875 14.4286H24.0625C23.847 14.4286 23.6403 14.3458 23.488 14.1984C23.3356 14.0511 23.25 13.8512 23.25 13.6429V7.35714C23.25 7.14876 23.3356 6.94891 23.488 6.80156C23.6403 6.65421 23.847 6.57143 24.0625 6.57143H24.875V14.4286Z"
        fill="#0466C8" />
    <path
        d="M11.896 9.89V11H11.5835L11.5785 10.695C11.4335 10.915 11.1685 11.07 10.796 11.07C10.161 11.07 9.67596 10.61 9.67596 9.95C9.67596 9.29 10.146 8.83 10.836 8.83C11.291 8.83 11.751 9.0425 11.8635 9.57H11.366C11.286 9.38 11.096 9.2625 10.8435 9.2625C10.4535 9.2625 10.1685 9.545 10.1685 9.95C10.1685 10.3525 10.456 10.6375 10.8335 10.6375C11.0435 10.6375 11.336 10.545 11.4085 10.2275H10.7985V9.89H11.896ZM13.8303 11L13.7003 10.6475H12.6653L12.5353 11H12.0203L12.8328 8.9H13.5328L14.3478 11H13.8303ZM12.8053 10.27H13.5603L13.2303 9.3725H13.1353L12.8053 10.27ZM15.3347 11.07C14.6947 11.07 14.3572 10.8425 14.3597 10.35H14.8097C14.8272 10.5475 14.9897 10.6725 15.3347 10.675C15.6597 10.675 15.8372 10.565 15.8372 10.4C15.8372 10.255 15.7197 10.1825 15.4697 10.14L15.2097 10.095C14.8122 10.025 14.4172 9.92 14.4172 9.4625C14.4172 9.065 14.7522 8.83 15.3397 8.83C15.8872 8.83 16.2672 9.0225 16.2722 9.5425H15.8247C15.7922 9.3525 15.6447 9.225 15.3297 9.225C15.0447 9.225 14.8947 9.3225 14.8947 9.485C14.8947 9.6125 14.9972 9.6925 15.2122 9.7325L15.4397 9.7725C15.8397 9.845 16.3322 9.9125 16.3322 10.415C16.3322 10.8325 15.9897 11.07 15.3347 11.07Z"
        fill="black" />
    <path d="M18.5 0H8.5V1.5H12.6667V3H14.3333V1.5H18.5V0Z" fill="#0466C8" />
</svg>