<svg width="18" height="28" viewBox="0 0 18 28" fill="none" xmlns="http://www.w3.org/2000/svg">
    <path
        d="M15.6111 0H2.38889C1.88792 0 1.40748 0.210714 1.05324 0.585786C0.699008 0.960859 0.5 1.46957 0.5 2V26C0.5 26.5304 0.699008 27.0391 1.05324 27.4142C1.40748 27.7893 1.88792 28 2.38889 28H15.6111C16.1121 28 16.5925 27.7893 16.9468 27.4142C17.301 27.0391 17.5 26.5304 17.5 26V2C17.5 1.46957 17.301 0.960859 16.9468 0.585786C16.5925 0.210714 16.1121 0 15.6111 0ZM9.94444 26H8.05556V24H9.94444V26ZM2.38889 22V2H15.6111V22H2.38889Z"
        fill="#0466C8" />
    <path opacity="0.5"
        d="M7.45455 8H12L11.5455 8.88889H10.0636C10.2818 9.14667 10.4455 9.44889 10.5409 9.77778H12L11.5455 10.6667H10.6364C10.5799 11.2207 10.3337 11.7399 9.93766 12.14C9.54165 12.5401 9.01904 12.7977 8.45455 12.8711V12.8889H8.13636L10.8636 16H9.72727L7 12.8889V12H8.13636C8.93636 12 9.6 11.4222 9.70909 10.6667H7L7.45455 9.77778H9.57273C9.31818 9.25333 8.77273 8.88889 8.13636 8.88889H7L7.45455 8Z"
        fill="#0466C8" />
</svg>