<svg width="32" height="32" viewBox="0 0 32 32" fill="none" xmlns="http://www.w3.org/2000/svg">
    <rect width="32" height="32" rx="10" fill="#0466C8" />
    <path fill-rule="evenodd" clip-rule="evenodd"
        d="M13.6432 7.31449C15.4132 6.83389 17.2878 6.90552 19.016 7.51978C20.7441 8.13404 22.2434 9.26161 23.313 10.7515V8.96831C23.313 8.74452 23.4019 8.5299 23.5601 8.37166C23.7184 8.21342 23.933 8.12452 24.1568 8.12452C24.3806 8.12452 24.5952 8.21342 24.7534 8.37166C24.9117 8.5299 25.0006 8.74452 25.0006 8.96831V13.7498H20.2191C19.9953 13.7498 19.7807 13.6609 19.6225 13.5026C19.4642 13.3444 19.3753 13.1298 19.3753 12.906C19.3753 12.6822 19.4642 12.4676 19.6225 12.3093C19.7807 12.1511 19.9953 12.0622 20.2191 12.0622H22.1621C21.2808 10.6834 19.9625 9.64009 18.4182 9.09908C16.8739 8.55806 15.1927 8.55064 13.6437 9.078C12.0946 9.60536 10.7672 10.637 9.87379 12.0079C8.98037 13.3789 8.57256 15.0098 8.7156 16.6399C8.85865 18.27 9.54429 19.805 10.6628 20.9994C11.7814 22.1938 13.2682 22.9785 14.8854 23.228C16.5026 23.4775 18.1568 23.1774 19.5833 22.3756C21.0098 21.5739 22.1262 20.3169 22.7539 18.8057C22.7946 18.701 22.8559 18.6054 22.9341 18.5246C23.0123 18.4439 23.1058 18.3796 23.2092 18.3355C23.3126 18.2913 23.4238 18.2683 23.5362 18.2678C23.6486 18.2673 23.76 18.2892 23.8638 18.3323C23.9676 18.3754 24.0618 18.4388 24.1408 18.5188C24.2197 18.5988 24.2819 18.6938 24.3237 18.7981C24.3654 18.9025 24.3859 19.0142 24.3839 19.1266C24.3819 19.239 24.3575 19.3498 24.312 19.4526C23.7257 20.8641 22.7896 22.1029 21.5919 23.0524C20.3943 24.0019 18.9746 24.6308 17.4666 24.8798C15.9586 25.1287 14.4121 24.9896 12.9728 24.4755C11.5335 23.9614 10.2488 23.0892 9.23989 21.9412C8.23094 20.7932 7.53095 19.4072 7.2059 17.9138C6.88086 16.4204 6.94146 14.8688 7.38201 13.4053C7.82256 11.9418 8.62853 10.6146 9.72396 9.54875C10.8194 8.48294 12.1682 7.71477 13.6432 7.31449Z"
        fill="white" />
</svg>