<svg width="33" height="32" viewBox="0 0 33 32" fill="none" xmlns="http://www.w3.org/2000/svg">
    <rect x="0.5" width="32" height="32" rx="10" fill="#0466C8" />
    <path fill-rule="evenodd" clip-rule="evenodd"
        d="M18.6532 9.99959C18.6533 9.29872 18.8987 8.61999 19.347 8.08121C19.7953 7.54244 20.418 7.17762 21.1072 7.05009C21.7964 6.92255 22.5084 7.04035 23.1198 7.38304C23.7312 7.72572 24.2033 8.27166 24.4542 8.92609C24.705 9.58052 24.7188 10.3021 24.4932 10.9657C24.2675 11.6292 23.8167 12.1928 23.2189 12.5587C22.621 12.9245 21.914 13.0694 21.2204 12.9684C20.5269 12.8673 19.8906 12.5266 19.4221 12.0053L16.9142 13.3733L14.1082 14.9766C14.5005 15.6671 14.6034 16.4848 14.3943 17.2509L19.4221 19.9933C19.914 19.4468 20.5895 19.0999 21.3202 19.0187C22.051 18.9374 22.7862 19.1273 23.3861 19.5524C23.9861 19.9775 24.409 20.6082 24.5746 21.3245C24.7402 22.0409 24.6369 22.7932 24.2844 23.4384C23.9318 24.0837 23.3546 24.577 22.6623 24.8247C21.97 25.0724 21.2108 25.0572 20.529 24.7819C19.8471 24.5067 19.2901 23.9907 18.9637 23.3318C18.6373 22.673 18.5643 21.9172 18.7584 21.208L13.7307 18.4666C13.3475 18.8928 12.8502 19.2003 12.2978 19.3527C11.7453 19.5051 11.1607 19.4961 10.6132 19.3268C10.0657 19.1574 9.5782 18.8347 9.20833 18.3969C8.83847 17.9591 8.60175 17.4245 8.52619 16.8564C8.45063 16.2883 8.53938 15.7105 8.78195 15.1912C9.02453 14.672 9.41076 14.2331 9.89496 13.9265C10.3792 13.6198 10.941 13.4584 11.5142 13.4611C12.0873 13.4638 12.6476 13.6307 13.1288 13.9419L16.2395 12.1641L18.7584 10.7897C18.6884 10.5322 18.653 10.2665 18.6532 9.99959ZM21.6531 8.38428C21.2247 8.38428 20.8138 8.55446 20.5109 8.85739C20.2079 9.16032 20.0378 9.57118 20.0378 9.99959C20.0378 10.428 20.2079 10.8389 20.5109 11.1418C20.8138 11.4447 21.2247 11.6149 21.6531 11.6149C22.0815 11.6149 22.4923 11.4447 22.7953 11.1418C23.0982 10.8389 23.2684 10.428 23.2684 9.99959C23.2684 9.57118 23.0982 9.16032 22.7953 8.85739C22.4923 8.55446 22.0815 8.38428 21.6531 8.38428ZM11.4997 14.8455C11.0713 14.8455 10.6604 15.0157 10.3575 15.3186C10.0546 15.6216 9.88438 16.0324 9.88438 16.4608C9.88438 16.8892 10.0546 17.3001 10.3575 17.603C10.6604 17.9059 11.0713 18.0761 11.4997 18.0761C11.9281 18.0761 12.339 17.9059 12.6419 17.603C12.9448 17.3001 13.115 16.8892 13.115 16.4608C13.115 16.0324 12.9448 15.6216 12.6419 15.3186C12.339 15.0157 11.9281 14.8455 11.4997 14.8455ZM20.0378 21.999C20.0378 21.5706 20.2079 21.1598 20.5109 20.8568C20.8138 20.5539 21.2247 20.3837 21.6531 20.3837C22.0815 20.3837 22.4923 20.5539 22.7953 20.8568C23.0982 21.1598 23.2684 21.5706 23.2684 21.999C23.2684 22.4274 23.0982 22.8383 22.7953 23.1412C22.4923 23.4442 22.0815 23.6143 21.6531 23.6143C21.2247 23.6143 20.8138 23.4442 20.5109 23.1412C20.2079 22.8383 20.0378 22.4274 20.0378 21.999Z"
        fill="white" />
</svg>