<svg width="32" height="32" viewBox="0 0 32 32" fill="none" xmlns="http://www.w3.org/2000/svg">
    <rect width="32" height="32" rx="10" fill="#0466C8" />
    <path
        d="M18.85 8.85001L20.29 10.29L17.41 13.17L18.83 14.59L21.71 11.71L23.15 13.15C23.2205 13.2191 23.3099 13.2658 23.4069 13.2842C23.5038 13.3026 23.6041 13.2919 23.695 13.2534C23.7859 13.2149 23.8634 13.1503 23.9177 13.0679C23.9719 12.9854 24.0006 12.8887 24 12.79V8.50001C24 8.22001 23.78 8.00001 23.5 8.00001H19.21C19.1113 7.99943 19.0146 8.02808 18.9322 8.08236C18.8497 8.13663 18.7852 8.2141 18.7467 8.305C18.7082 8.3959 18.6974 8.49616 18.7158 8.59315C18.7342 8.69014 18.7809 8.77951 18.85 8.85001ZM12.79 8.00001H8.5C8.22 8.00001 8 8.22001 8 8.50001V12.79C8 13.24 8.54 13.46 8.85 13.14L10.29 11.7L15 16.4V23C15 23.55 15.45 24 16 24C16.55 24 17 23.55 17 23V16C17 15.74 16.89 15.48 16.71 15.29L11.71 10.28L13.15 8.84001C13.46 8.54001 13.24 8.00001 12.79 8.00001Z"
        fill="white" />
</svg>