<svg width="20" height="24" viewBox="0 0 20 24" fill="none" xmlns="http://www.w3.org/2000/svg">
    <path fill-rule="evenodd" clip-rule="evenodd"
        d="M0 1.89474C0 1.39222 0.197544 0.910288 0.549175 0.554956C0.900806 0.199623 1.37772 0 1.875 0H18.125C18.6223 0 19.0992 0.199623 19.4508 0.554956C19.8025 0.910288 20 1.39222 20 1.89474V22.1053C20 22.6078 19.8025 23.0897 19.4508 23.445C19.0992 23.8004 18.6223 24 18.125 24H1.875C1.37772 24 0.900806 23.8004 0.549175 23.445C0.197544 23.0897 0 22.6078 0 22.1053V1.89474ZM1.875 1.26316C1.70924 1.26316 1.55027 1.3297 1.43306 1.44814C1.31585 1.56659 1.25 1.72723 1.25 1.89474V22.1053C1.25 22.2728 1.31585 22.4334 1.43306 22.5519C1.55027 22.6703 1.70924 22.7368 1.875 22.7368H18.125C18.2908 22.7368 18.4497 22.6703 18.5669 22.5519C18.6842 22.4334 18.75 22.2728 18.75 22.1053V1.89474C18.75 1.72723 18.6842 1.56659 18.5669 1.44814C18.4497 1.3297 18.2908 1.26316 18.125 1.26316H1.875Z"
        fill="#0466C8" />
    <path fill-rule="evenodd" clip-rule="evenodd"
        d="M8 20.5C8 20.3674 8.06585 20.2402 8.18306 20.1464C8.30027 20.0527 8.45924 20 8.625 20H12.375C12.5408 20 12.6997 20.0527 12.8169 20.1464C12.9342 20.2402 13 20.3674 13 20.5C13 20.6326 12.9342 20.7598 12.8169 20.8536C12.6997 20.9473 12.5408 21 12.375 21H8.625C8.45924 21 8.30027 20.9473 8.18306 20.8536C8.06585 20.7598 8 20.6326 8 20.5Z"
        fill="#0466C8" />
    <path
        d="M10.5 7C9.60999 7 8.73996 7.26392 7.99994 7.75839C7.25991 8.25285 6.68314 8.95566 6.34254 9.77792C6.00195 10.6002 5.91283 11.505 6.08647 12.3779C6.2601 13.2508 6.68869 14.0526 7.31802 14.682C7.94736 15.3113 8.74918 15.7399 9.6221 15.9135C10.495 16.0872 11.3998 15.998 12.2221 15.6575C13.0443 15.3169 13.7471 14.7401 14.2416 14.0001C14.7361 13.26 15 12.39 15 11.5C15 10.9091 14.8836 10.3239 14.6575 9.77792C14.4313 9.23196 14.0998 8.73588 13.682 8.31802C13.2641 7.90016 12.768 7.56869 12.2221 7.34254C11.6761 7.1164 11.091 7 10.5 7ZM9.6 13.525V9.475L12.3 11.5L9.6 13.525Z"
        fill="#0466C8" fill-opacity="0.5" />
</svg>