<svg width="32" height="32" viewBox="0 0 32 32" fill="none" xmlns="http://www.w3.org/2000/svg">
    <path
        d="M29.5 13C29.6326 13 29.7598 12.9473 29.8536 12.8536C29.9473 12.7598 30 12.6326 30 12.5V8.5C30 8.10218 29.842 7.72064 29.5607 7.43934C29.2794 7.15804 28.8978 7 28.5 7H4.5C4.10218 7 3.72064 7.15804 3.43934 7.43934C3.15804 7.72064 3 8.10218 3 8.5V12.5C3 12.6326 3.05268 12.7598 3.14645 12.8536C3.24021 12.9473 3.36739 13 3.5 13C4.42826 13 5.3185 13.3687 5.97487 14.0251C6.63125 14.6815 7 15.5717 7 16.5C7 17.4283 6.63125 18.3185 5.97487 18.9749C5.3185 19.6313 4.42826 20 3.5 20C3.36739 20 3.24021 20.0527 3.14645 20.1464C3.05268 20.2402 3 20.3674 3 20.5V24.5C3 24.8978 3.15804 25.2794 3.43934 25.5607C3.72064 25.842 4.10218 26 4.5 26H28.5C28.8978 26 29.2794 25.842 29.5607 25.5607C29.842 25.2794 30 24.8978 30 24.5V20.5C30 20.3674 29.9473 20.2402 29.8536 20.1464C29.7598 20.0527 29.6326 20 29.5 20C28.5717 20 27.6815 19.6313 27.0251 18.9749C26.3687 18.3185 26 17.4283 26 16.5C26 15.5717 26.3687 14.6815 27.0251 14.0251C27.6815 13.3687 28.5717 13 29.5 13ZM4 24.5V20.9725C5.1007 20.8503 6.11766 20.3264 6.85627 19.5012C7.59488 18.676 8.00327 17.6075 8.00327 16.5C8.00327 15.3925 7.59488 14.324 6.85627 13.4988C6.11766 12.6736 5.1007 12.1497 4 12.0275V8.5C4 8.36739 4.05268 8.24021 4.14645 8.14645C4.24021 8.05268 4.36739 8 4.5 8H12V25H4.5C4.36739 25 4.24021 24.9473 4.14645 24.8536C4.05268 24.7598 4 24.6326 4 24.5ZM25 16.5C25.0016 17.6065 25.4101 18.6738 26.1477 19.4985C26.8853 20.3233 27.9005 20.8479 29 20.9725V24.5C29 24.6326 28.9473 24.7598 28.8536 24.8536C28.7598 24.9473 28.6326 25 28.5 25H13V8H28.5C28.6326 8 28.7598 8.05268 28.8536 8.14645C28.9473 8.24021 29 8.36739 29 8.5V12.0275C27.9005 12.1521 26.8853 12.6767 26.1477 13.5015C25.4101 14.3262 25.0016 15.3935 25 16.5Z"
        fill="#111111" />
</svg>