<svg width="25" height="19" viewBox="0 0 25 19" fill="none" xmlns="http://www.w3.org/2000/svg">
    <path
        d="M18.5006 10.6875C19.1633 10.6875 19.7005 11.2192 19.7005 11.875C19.7005 12.484 19.2373 12.9859 18.6405 13.0545L18.5006 13.0625H4.59999L8.55013 16.9728C8.98266 17.4009 9.01594 18.0745 8.64994 18.5403L8.55013 18.6522C8.11759 19.0803 7.43698 19.1132 6.96628 18.751L6.85324 18.6522L0.853842 12.7147C0.130825 11.9991 0.589196 10.7977 1.56594 10.6946L1.70228 10.6875H18.5006ZM18.0337 0.249024L18.1468 0.347811L24.1462 6.28531C24.8692 7.00087 24.4108 8.20228 23.4341 8.3054L23.2977 8.3125H6.4994C5.83672 8.3125 5.29952 7.78084 5.29952 7.125C5.29952 6.51601 5.76272 6.01409 6.35947 5.94549L6.4994 5.9375H20.4L16.4499 2.02719C16.0173 1.59911 15.9841 0.925528 16.3501 0.459682L16.4499 0.347811C16.8824 -0.0802638 17.563 -0.113193 18.0337 0.249024Z"
        fill="#1E1E1E" />
</svg>