<svg width="24" height="24" viewBox="0 0 24 24" fill="none" xmlns="http://www.w3.org/2000/svg">
    <path fill-rule="evenodd" clip-rule="evenodd"
        d="M1.33333 4V0H0V24H1.33333V10.6667H3.33333V12H12.6667V9.778H14.6667C15.0203 9.778 15.3594 9.91848 15.6095 10.1685C15.8595 10.4186 16 10.7577 16 11.1113V11.3333H14.6667V16.6667H24V11.3333H22.6667V10.6667C22.6667 6.98467 19.682 4 16 4H12.6667V2.66667H8.66667V1.33333H13.3333C13.5101 1.33333 13.6797 1.2631 13.8047 1.13807C13.9298 1.01305 14 0.843478 14 0.666667C14 0.489856 13.9298 0.320287 13.8047 0.195262C13.6797 0.070238 13.5101 0 13.3333 0H2.66667C2.48986 0 2.32029 0.070238 2.19526 0.195262C2.07024 0.320287 2 0.489856 2 0.666667C2 0.843478 2.07024 1.01305 2.19526 1.13807C2.32029 1.2631 2.48986 1.33333 2.66667 1.33333H7.33333V2.66667H3.33333V4H1.33333ZM21.3333 10.6667C21.3333 9.25218 20.7714 7.89562 19.7712 6.89543C18.771 5.89524 17.4145 5.33333 16 5.33333H12.6667V8.44467H14.6667C15.3739 8.44467 16.0522 8.72562 16.5523 9.22572C17.0524 9.72581 17.3333 10.4041 17.3333 11.1113V11.3333H21.3333V10.6667ZM22.6667 12.6667H16V15.3333H22.6667V12.6667ZM11.3333 4H4.66667V10.6667H11.3333V4ZM3.33333 9.33333H1.33333V5.33333H3.33333V9.33333Z"
        fill="#0466C8" />
    <path fill-rule="evenodd" clip-rule="evenodd"
        d="M19 24C20.3807 24 21.5 22.8604 21.5 21.4548C21.5 19.2274 19 17 19 17C19 17 16.5 19.2274 16.5 21.4548C16.5 22.8604 17.6193 24 19 24ZM19 22.6C19.5407 22.6 20.0714 22.138 20.0714 21.4548C20.0714 20.8024 19.6771 19.9939 19.0979 19.2197L19 19.0916C18.9667 19.1336 18.934 19.1763 18.9021 19.2197C18.3236 19.9932 17.9286 20.8017 17.9286 21.4548C17.9286 22.138 18.4593 22.6 19 22.6Z"
        fill="#0466C8" fill-opacity="0.5" />
</svg>