<svg width="26" height="24" viewBox="0 0 26 24" fill="none" xmlns="http://www.w3.org/2000/svg">
    <path
        d="M22.3333 23H3.66667C2.95942 23 2.28115 22.7244 1.78105 22.234C1.28095 21.7435 1 21.0783 1 20.3846V8.61538C1 7.92174 1.78105 6.76603 1.78105 6.76603C2.28115 6.27555 2.95942 6 3.66667 6H22.3333C23.0406 6 23.7189 6.27555 24.219 6.76603C24.719 7.25651 25 7.92174 25 8.61538V20.3846C25 21.0783 24.719 21.7435 24.219 22.234C23.7189 22.7244 23.0406 23 22.3333 23Z"
        stroke="white" stroke-width="2" />
    <path
        d="M18.5 15C18.3674 15 18.2402 14.9473 18.1464 14.8536C18.0527 14.7598 18 14.6326 18 14.5C18 14.3674 18.0527 14.2402 18.1464 14.1464C18.2402 14.0527 18.3674 14 18.5 14C18.6326 14 18.7598 14.0527 18.8536 14.1464C18.9473 14.2402 19 14.3674 19 14.5C19 14.6326 18.9473 14.7598 18.8536 14.8536C18.7598 14.9473 18.6326 15 18.5 15Z"
        fill="white" stroke="white" stroke-width="2" stroke-linecap="round" stroke-linejoin="round" />
    <path
        d="M21 5.4057V3.59358C20.9999 3.19601 20.9058 2.80378 20.7251 2.44718C20.5445 2.09058 20.2819 1.77916 19.9578 1.53696C19.6338 1.29476 19.2568 1.12827 18.8561 1.05033C18.4553 0.972398 18.0415 0.985109 17.6467 1.08748L2.98 4.89203C2.41207 5.03927 1.91005 5.36492 1.55199 5.81836C1.19392 6.2718 0.99987 6.82762 1 7.39942V8"
        stroke="white" stroke-width="2" />
</svg>